<?xml version="1.0" encoding="utf-8"?>
<!-- Generator: Adobe Illustrator 23.1.1, SVG Export Plug-In . SVG Version: 6.00 Build 0)  -->
<svg version="1.1" id="REINZEICHNUNG_DE" xmlns="http://www.w3.org/2000/svg" xmlns:xlink="http://www.w3.org/1999/xlink" x="0px"
	 y="0px" viewBox="0 0 1044.92 309.19" style="enable-background:new 0 0 1044.92 309.19;" xml:space="preserve">
<style type="text/css">
	.st0{display:none;}
	.st1{display:inline;}
	.st2{fill:#32A05A;}
	.st3{display:inline;fill:#5AB987;}
	.st4{fill:#8CCDB4;}
	.st5{fill:#FFFFFF;}
	.st6{fill:#319E59;}
	.st7{fill:#5AB987;}
</style>
<g id="Text_x2F_Layout" class="st0">
</g>
<g id="PFADE">
	<g>
		<path d="M463.56,130.62c3.17-0.53,6.29-0.79,9.38-0.79c3.08,0,6.21,0.26,9.38,0.79v36.18c0,3.61,0.28,6.58,0.86,8.91
			c0.57,2.33,1.45,4.18,2.64,5.55c1.19,1.37,2.66,2.33,4.42,2.9c1.76,0.57,3.83,0.86,6.21,0.86c3.26,0,5.99-0.31,8.19-0.92v-53.47
			c3.17-0.53,6.25-0.79,9.24-0.79c3.08,0,6.21,0.26,9.38,0.79v65.62c-2.82,0.97-6.54,1.91-11.16,2.84s-9.44,1.39-14.46,1.39
			c-4.49,0-8.8-0.35-12.94-1.06c-4.14-0.7-7.77-2.2-10.89-4.49c-3.13-2.29-5.61-5.63-7.46-10.04c-1.85-4.4-2.77-10.25-2.77-17.56
			V130.62z"/>
		<path d="M540.01,102.36c3.17-0.53,6.25-0.79,9.24-0.79c3.08,0,6.21,0.26,9.38,0.79v34.86c1.32-2.38,3.52-4.33,6.6-5.88
			c3.08-1.54,6.6-2.31,10.56-2.31s7.64,0.71,11.03,2.11c3.39,1.41,6.31,3.54,8.78,6.4c2.46,2.86,4.4,6.45,5.81,10.76
			c1.41,4.31,2.11,9.42,2.11,15.32c0,5.72-0.88,10.85-2.64,15.38c-1.76,4.53-4.31,8.38-7.66,11.55c-3.35,3.17-7.44,5.61-12.28,7.33
			c-4.84,1.72-10.3,2.57-16.37,2.57c-1.94,0-3.98-0.09-6.14-0.26c-2.16-0.18-4.34-0.42-6.54-0.73c-2.2-0.31-4.31-0.7-6.34-1.19
			c-2.03-0.48-3.87-1.03-5.54-1.65V102.36z M558.63,184.09c1.06,0.35,2.18,0.57,3.37,0.66c1.19,0.09,2.4,0.13,3.63,0.13
			c5.72,0,10.21-1.67,13.47-5.02c3.26-3.34,4.89-8.58,4.89-15.71c0-6.34-1.01-11.16-3.04-14.46c-2.03-3.3-5.46-4.95-10.3-4.95
			c-3.52,0-6.4,1.17-8.65,3.5c-2.24,2.33-3.37,6.01-3.37,11.03V184.09z"/>
		<path d="M629.14,170.49c0.35,5.28,2.2,9.11,5.55,11.49c3.34,2.38,7.75,3.56,13.2,3.56c2.99,0,6.05-0.29,9.18-0.86
			c3.12-0.57,6.09-1.39,8.91-2.44c0.97,1.76,1.8,3.87,2.51,6.34c0.7,2.46,1.1,5.11,1.19,7.92c-6.87,2.64-14.61,3.96-23.24,3.96
			c-6.34,0-11.77-0.88-16.31-2.64c-4.53-1.76-8.23-4.2-11.09-7.33c-2.86-3.12-4.97-6.84-6.34-11.16c-1.37-4.31-2.05-9.02-2.05-14.13
			c0-5.02,0.7-9.72,2.11-14.13c1.41-4.4,3.5-8.23,6.27-11.49c2.77-3.25,6.21-5.83,10.3-7.72c4.09-1.89,8.87-2.84,14.33-2.84
			c4.75,0,8.98,0.84,12.68,2.51c3.7,1.67,6.84,3.96,9.44,6.87c2.59,2.9,4.55,6.36,5.88,10.37c1.32,4.01,1.98,8.3,1.98,12.87
			c0,1.67-0.07,3.32-0.2,4.95c-0.13,1.63-0.29,2.93-0.46,3.89H629.14z M655.94,157.42c-0.18-4.23-1.34-7.64-3.5-10.23
			c-2.16-2.59-5.17-3.9-9.04-3.9c-4.4,0-7.75,1.23-10.04,3.7c-2.29,2.46-3.65,5.94-4.09,10.43H655.94z"/>
		<path d="M686.44,130.62c1.32-0.26,2.58-0.46,3.76-0.59c1.19-0.13,2.49-0.2,3.89-0.2c1.32,0,2.62,0.09,3.9,0.26
			c1.27,0.18,2.53,0.4,3.76,0.66c0.26,0.44,0.51,1.08,0.73,1.91c0.22,0.84,0.42,1.72,0.59,2.64c0.18,0.92,0.33,1.85,0.46,2.77
			c0.13,0.92,0.24,1.7,0.33,2.31c1.94-2.73,4.31-5.17,7.13-7.33c2.82-2.16,6.34-3.23,10.56-3.23c0.88,0,1.89,0.04,3.04,0.13
			c1.14,0.09,1.98,0.22,2.51,0.4c0.18,0.88,0.31,1.89,0.4,3.04c0.09,1.14,0.13,2.33,0.13,3.56c0,1.5-0.07,3.13-0.2,4.89
			c-0.13,1.76-0.38,3.43-0.73,5.02c-0.97-0.17-2.05-0.26-3.24-0.26s-1.91,0-2.18,0c-1.5,0-3.17,0.16-5.02,0.46
			c-1.85,0.31-3.61,1.12-5.28,2.44c-1.67,1.32-3.06,3.3-4.16,5.94c-1.1,2.64-1.65,6.34-1.65,11.09v32.48
			c-1.58,0.26-3.17,0.44-4.75,0.53c-1.58,0.09-3.13,0.13-4.62,0.13c-1.5,0-3.02-0.04-4.56-0.13c-1.54-0.09-3.15-0.26-4.82-0.53
			V130.62z"/>
		<path d="M737.65,102.36c3.17-0.53,6.29-0.79,9.38-0.79c2.99,0,6.07,0.26,9.24,0.79v69.32c0,2.73,0.15,4.93,0.46,6.6
			c0.31,1.67,0.79,2.97,1.45,3.89s1.52,1.56,2.57,1.91c1.06,0.35,2.38,0.53,3.96,0.53c0.7,0,1.47-0.04,2.31-0.13
			c0.83-0.09,1.65-0.22,2.44-0.4c0.97,3.61,1.45,7.13,1.45,10.56c0,0.71,0,1.34,0,1.92s-0.09,1.21-0.26,1.91
			c-1.41,0.44-3.1,0.75-5.08,0.92c-1.98,0.18-3.81,0.26-5.48,0.26c-6.78,0-12.21-1.87-16.31-5.61c-4.09-3.74-6.14-9.84-6.14-18.29
			V102.36z"/>
		<path d="M813.31,153.99c0-2.11-0.35-3.83-1.06-5.15c-0.71-1.32-1.67-2.35-2.9-3.1c-1.23-0.75-2.75-1.25-4.56-1.52
			c-1.8-0.26-3.81-0.4-6.01-0.4c-4.75,0-9.82,0.92-15.18,2.77c-1.23-2.29-2.16-4.44-2.77-6.47c-0.62-2.02-0.92-4.44-0.92-7.26
			c3.87-1.32,7.75-2.29,11.62-2.91c3.87-0.61,7.48-0.92,10.83-0.92c9.15,0,16.31,2.2,21.46,6.6c5.15,4.4,7.72,11.44,7.72,21.13
			v39.61c-3.08,0.97-6.82,1.89-11.22,2.77c-4.4,0.88-9.38,1.32-14.92,1.32c-4.49,0-8.61-0.4-12.35-1.19
			c-3.74-0.79-6.95-2.11-9.64-3.96c-2.69-1.85-4.75-4.23-6.21-7.13c-1.45-2.9-2.18-6.47-2.18-10.7c0-4.22,0.9-7.77,2.71-10.63
			c1.8-2.86,4.14-5.15,7-6.87c2.86-1.72,6.05-2.95,9.57-3.7c3.52-0.75,7.04-1.12,10.56-1.12c2.55,0,5.37,0.13,8.45,0.4V153.99z
			 M813.31,167.59c-1.06-0.18-2.2-0.33-3.43-0.46c-1.23-0.13-2.33-0.2-3.3-0.2c-4.31,0-7.72,0.77-10.23,2.31
			c-2.51,1.54-3.76,4.03-3.76,7.46c0,2.29,0.48,4.05,1.45,5.28c0.97,1.23,2.13,2.13,3.5,2.71c1.36,0.57,2.82,0.92,4.36,1.06
			c1.54,0.13,2.88,0.2,4.03,0.2c1.32,0,2.64-0.11,3.96-0.33c1.32-0.22,2.46-0.42,3.43-0.59V167.59z"/>
		<path d="M844.6,130.62c1.23-0.26,2.46-0.46,3.7-0.59c1.23-0.13,2.6-0.2,4.09-0.2c1.5,0,2.82,0.07,3.96,0.2
			c1.14,0.13,2.33,0.33,3.56,0.59c0.26,0.44,0.51,1.08,0.73,1.91c0.22,0.84,0.42,1.72,0.59,2.64c0.18,0.92,0.33,1.83,0.46,2.71
			c0.13,0.88,0.24,1.63,0.33,2.25c0.88-1.32,1.94-2.64,3.17-3.96c1.23-1.32,2.66-2.51,4.29-3.57c1.63-1.06,3.45-1.92,5.48-2.58
			c2.02-0.66,4.27-0.99,6.73-0.99c7.74,0,13.58,2.11,17.49,6.34c3.92,4.22,5.88,10.87,5.88,19.94v43.57
			c-3.17,0.53-6.29,0.79-9.38,0.79c-3.08,0-6.21-0.26-9.37-0.79v-38.55c0-4.75-0.73-8.41-2.18-10.96c-1.45-2.55-3.98-3.83-7.59-3.83
			c-1.5,0-3.04,0.22-4.62,0.66c-1.58,0.44-3.02,1.3-4.29,2.58c-1.28,1.28-2.31,3.06-3.1,5.35c-0.79,2.29-1.19,5.28-1.19,8.98v35.78
			c-3.17,0.53-6.29,0.79-9.37,0.79c-3.08,0-6.21-0.26-9.38-0.79V130.62z"/>
		<path d="M959.34,102.36c1.58-0.26,3.15-0.44,4.69-0.53c1.54-0.09,3.06-0.13,4.56-0.13c1.5,0,3.04,0.05,4.62,0.13
			c1.58,0.09,3.17,0.26,4.75,0.53v94.27c-4.14,1.23-8.34,2.18-12.61,2.84c-4.27,0.66-9.44,0.99-15.51,0.99
			c-4.67,0-9.13-0.64-13.4-1.91c-4.27-1.28-8.03-3.3-11.29-6.07c-3.26-2.77-5.83-6.36-7.72-10.76c-1.89-4.4-2.84-9.77-2.84-16.11
			c0-5.02,0.81-9.75,2.44-14.19c1.63-4.44,3.96-8.3,7-11.55c3.04-3.25,6.71-5.83,11.02-7.72c4.31-1.89,9.11-2.84,14.39-2.84
			c1.58,0,3.24,0.07,4.95,0.2c1.72,0.13,3.37,0.42,4.95,0.86V102.36z M959.34,144.74c-1.76-0.44-3.19-0.73-4.29-0.86
			c-1.1-0.13-2.49-0.2-4.16-0.2c-2.91,0-5.44,0.59-7.59,1.78c-2.16,1.19-3.94,2.77-5.35,4.75c-1.41,1.98-2.44,4.31-3.1,7
			c-0.66,2.69-0.99,5.48-0.99,8.38c0,3.61,0.44,6.67,1.32,9.18c0.88,2.51,2.09,4.51,3.63,6.01c1.54,1.5,3.37,2.58,5.48,3.24
			c2.11,0.66,4.4,0.99,6.87,0.99c1.5,0,2.86-0.07,4.09-0.2c1.23-0.13,2.6-0.42,4.09-0.86V144.74z"/>
	</g>
	<g>
		<path d="M742.19,221.13h-7.97c-0.18-0.89-0.27-1.83-0.27-2.8c0-0.92,0.09-1.83,0.27-2.71h22.48c0.18,0.89,0.27,1.8,0.27,2.71
			c0,0.98-0.09,1.91-0.27,2.8h-7.97v26.49c-0.53,0.06-1.07,0.11-1.6,0.16c-0.53,0.04-1.05,0.07-1.56,0.07s-1.05-0.02-1.62-0.04
			c-0.58-0.03-1.17-0.09-1.76-0.18V221.13z"/>
		<path d="M762.62,238.04c0.12,1.78,0.74,3.07,1.87,3.87c1.13,0.8,2.61,1.2,4.45,1.2c1.01,0,2.04-0.1,3.09-0.29
			c1.05-0.19,2.05-0.47,3-0.82c0.33,0.59,0.61,1.31,0.85,2.14c0.24,0.83,0.37,1.72,0.4,2.67c-2.31,0.89-4.93,1.33-7.83,1.33
			c-2.14,0-3.97-0.3-5.5-0.89c-1.53-0.59-2.77-1.42-3.74-2.47c-0.96-1.05-1.68-2.31-2.14-3.76c-0.46-1.45-0.69-3.04-0.69-4.76
			c0-1.69,0.24-3.28,0.71-4.76c0.47-1.48,1.18-2.77,2.11-3.87c0.94-1.1,2.09-1.97,3.47-2.6c1.38-0.64,2.99-0.96,4.83-0.96
			c1.6,0,3.03,0.28,4.27,0.85c1.25,0.56,2.31,1.34,3.18,2.32c0.88,0.98,1.54,2.14,1.98,3.49s0.67,2.8,0.67,4.34
			c0,0.56-0.02,1.12-0.07,1.67c-0.04,0.55-0.1,0.99-0.16,1.31H762.62z M771.65,233.64c-0.06-1.42-0.45-2.57-1.18-3.45
			c-0.73-0.88-1.74-1.31-3.05-1.31c-1.48,0-2.61,0.42-3.38,1.25c-0.77,0.83-1.23,2-1.38,3.52H771.65z"/>
		<path d="M797.59,242.18c0.36,0.59,0.65,1.28,0.89,2.07s0.36,1.71,0.36,2.78c-1.19,0.48-2.3,0.78-3.34,0.91s-2.12,0.2-3.25,0.2
			c-1.93,0-3.61-0.3-5.03-0.91c-1.42-0.61-2.6-1.45-3.54-2.52c-0.93-1.07-1.64-2.34-2.11-3.81s-0.71-3.06-0.71-4.79
			c0-1.69,0.23-3.26,0.69-4.72c0.46-1.45,1.16-2.73,2.09-3.83c0.93-1.1,2.1-1.96,3.49-2.58c1.39-0.62,3.01-0.93,4.85-0.93
			c0.65,0,1.25,0.02,1.8,0.04s1.08,0.09,1.58,0.18s1.01,0.21,1.51,0.36s1.07,0.34,1.69,0.58c0,0.68-0.09,1.45-0.27,2.29
			s-0.46,1.65-0.85,2.43c-0.89-0.3-1.67-0.5-2.34-0.6c-0.67-0.1-1.43-0.16-2.29-0.16c-1.84,0-3.23,0.6-4.16,1.8
			c-0.93,1.2-1.4,2.92-1.4,5.14c0,2.4,0.5,4.16,1.51,5.25s2.37,1.65,4.1,1.65c0.45,0,0.85-0.01,1.22-0.02
			c0.37-0.01,0.74-0.05,1.09-0.11c0.36-0.06,0.72-0.15,1.09-0.27C796.65,242.51,797.09,242.36,797.59,242.18z"/>
		<path d="M802.53,215.07c1.01-0.18,2.05-0.27,3.12-0.27s2.12,0.09,3.16,0.27v32.54c-1.04,0.18-2.09,0.27-3.16,0.27
			s-2.11-0.09-3.12-0.27V215.07z M809.7,235.55l5.7-10.95c1.16-0.18,2.33-0.27,3.52-0.27c1.13,0,2.23,0.09,3.29,0.27l-5.88,10.64
			l6.85,12.38c-1.22,0.18-2.39,0.27-3.52,0.27c-1.04,0-2.14-0.09-3.29-0.27L809.7,235.55z"/>
		<path d="M826.66,215.07c1.07-0.18,2.12-0.27,3.16-0.27c1.01,0,2.05,0.09,3.12,0.27v23.37c0,0.92,0.05,1.66,0.16,2.23
			c0.1,0.56,0.27,1,0.49,1.31s0.51,0.53,0.87,0.65c0.36,0.12,0.8,0.18,1.34,0.18c0.24,0,0.5-0.01,0.78-0.04s0.56-0.07,0.82-0.13
			c0.33,1.22,0.49,2.4,0.49,3.56c0,0.24,0,0.45,0,0.65c0,0.19-0.03,0.41-0.09,0.65c-0.48,0.15-1.05,0.25-1.71,0.31
			s-1.28,0.09-1.85,0.09c-2.29,0-4.12-0.63-5.5-1.89c-1.38-1.26-2.07-3.32-2.07-6.17V215.07z"/>
		<path d="M845.88,238.04c0.12,1.78,0.74,3.07,1.87,3.87c1.13,0.8,2.61,1.2,4.45,1.2c1.01,0,2.04-0.1,3.09-0.29
			c1.05-0.19,2.05-0.47,3-0.82c0.33,0.59,0.61,1.31,0.85,2.14c0.24,0.83,0.37,1.72,0.4,2.67c-2.31,0.89-4.93,1.33-7.83,1.33
			c-2.14,0-3.97-0.3-5.5-0.89c-1.53-0.59-2.77-1.42-3.74-2.47c-0.96-1.05-1.68-2.31-2.14-3.76c-0.46-1.45-0.69-3.04-0.69-4.76
			c0-1.69,0.24-3.28,0.71-4.76c0.47-1.48,1.18-2.77,2.11-3.87c0.94-1.1,2.09-1.97,3.47-2.6c1.38-0.64,2.99-0.96,4.83-0.96
			c1.6,0,3.03,0.28,4.27,0.85c1.25,0.56,2.31,1.34,3.18,2.32c0.88,0.98,1.54,2.14,1.98,3.49s0.67,2.8,0.67,4.34
			c0,0.56-0.02,1.12-0.07,1.67c-0.04,0.55-0.1,0.99-0.16,1.31H845.88z M854.92,233.64c-0.06-1.42-0.45-2.57-1.18-3.45
			c-0.73-0.88-1.74-1.31-3.05-1.31c-1.48,0-2.61,0.42-3.38,1.25c-0.77,0.83-1.23,2-1.38,3.52H854.92z"/>
		<path d="M865.34,224.6c0.42-0.09,0.83-0.16,1.25-0.2c0.42-0.04,0.88-0.07,1.38-0.07c0.5,0,0.95,0.02,1.33,0.07
			c0.39,0.04,0.79,0.11,1.2,0.2c0.09,0.15,0.17,0.36,0.25,0.65c0.07,0.28,0.14,0.58,0.2,0.89s0.11,0.62,0.16,0.91
			c0.04,0.3,0.08,0.55,0.11,0.76c0.3-0.45,0.65-0.89,1.07-1.33c0.42-0.45,0.9-0.85,1.45-1.2c0.55-0.36,1.16-0.65,1.85-0.87
			c0.68-0.22,1.44-0.33,2.27-0.33c2.61,0,4.58,0.71,5.9,2.14c1.32,1.42,1.98,3.67,1.98,6.72v14.69c-1.07,0.18-2.12,0.27-3.16,0.27
			c-1.04,0-2.09-0.09-3.16-0.27v-13c0-1.6-0.25-2.83-0.74-3.69c-0.49-0.86-1.34-1.29-2.56-1.29c-0.51,0-1.02,0.07-1.56,0.22
			s-1.02,0.44-1.45,0.87c-0.43,0.43-0.78,1.03-1.05,1.8c-0.27,0.77-0.4,1.78-0.4,3.03v12.06c-1.07,0.18-2.12,0.27-3.16,0.27
			c-1.04,0-2.09-0.09-3.16-0.27V224.6z"/>
		<path d="M890.97,215.07c1.07-0.18,2.11-0.27,3.12-0.27c1.04,0,2.09,0.09,3.16,0.27v11.75c0.44-0.8,1.19-1.46,2.23-1.98
			c1.04-0.52,2.23-0.78,3.56-0.78c1.34,0,2.57,0.24,3.72,0.71s2.13,1.19,2.96,2.16c0.83,0.96,1.48,2.17,1.96,3.63
			c0.47,1.45,0.71,3.18,0.71,5.16c0,1.93-0.3,3.66-0.89,5.19c-0.59,1.53-1.46,2.83-2.58,3.89c-1.13,1.07-2.51,1.89-4.14,2.47
			c-1.63,0.58-3.47,0.87-5.52,0.87c-0.65,0-1.34-0.03-2.07-0.09c-0.73-0.06-1.46-0.14-2.2-0.25c-0.74-0.1-1.45-0.24-2.14-0.4
			s-1.31-0.35-1.87-0.56V215.07z M897.25,242.63c0.36,0.12,0.73,0.19,1.13,0.22s0.81,0.04,1.22,0.04c1.93,0,3.44-0.56,4.54-1.69
			c1.1-1.13,1.65-2.89,1.65-5.3c0-2.14-0.34-3.76-1.02-4.87c-0.68-1.11-1.84-1.67-3.47-1.67c-1.19,0-2.16,0.39-2.92,1.18
			c-0.76,0.79-1.13,2.03-1.13,3.72V242.63z"/>
		<path d="M916.45,224.6c1.07-0.18,2.12-0.27,3.16-0.27c1.04,0,2.09,0.09,3.16,0.27v12.2c0,1.22,0.1,2.22,0.29,3
			c0.19,0.79,0.49,1.41,0.89,1.87s0.9,0.79,1.49,0.98s1.29,0.29,2.09,0.29c1.1,0,2.02-0.1,2.76-0.31V224.6
			c1.07-0.18,2.11-0.27,3.12-0.27c1.04,0,2.09,0.09,3.16,0.27v22.12c-0.95,0.33-2.2,0.65-3.76,0.96c-1.56,0.31-3.18,0.47-4.87,0.47
			c-1.51,0-2.97-0.12-4.36-0.36c-1.4-0.24-2.62-0.74-3.67-1.51c-1.05-0.77-1.89-1.9-2.51-3.38c-0.62-1.48-0.94-3.46-0.94-5.92V224.6
			z"/>
		<path d="M941.89,224.6c0.45-0.09,0.87-0.16,1.27-0.2c0.4-0.04,0.84-0.07,1.31-0.07c0.45,0,0.88,0.03,1.31,0.09
			c0.43,0.06,0.85,0.13,1.27,0.22c0.09,0.15,0.17,0.36,0.25,0.65c0.07,0.28,0.14,0.58,0.2,0.89s0.11,0.62,0.16,0.94
			c0.04,0.31,0.08,0.57,0.11,0.78c0.65-0.92,1.45-1.74,2.4-2.47c0.95-0.73,2.14-1.09,3.56-1.09c0.3,0,0.64,0.01,1.02,0.04
			c0.38,0.03,0.67,0.08,0.85,0.13c0.06,0.3,0.1,0.64,0.13,1.02c0.03,0.39,0.04,0.79,0.04,1.2c0,0.5-0.02,1.05-0.07,1.65
			c-0.04,0.59-0.13,1.16-0.25,1.69c-0.33-0.06-0.69-0.09-1.09-0.09c-0.4,0-0.65,0-0.73,0c-0.5,0-1.07,0.05-1.69,0.16
			c-0.62,0.1-1.22,0.38-1.78,0.82c-0.56,0.45-1.03,1.11-1.4,2c-0.37,0.89-0.56,2.14-0.56,3.74v10.95c-0.53,0.09-1.07,0.15-1.6,0.18
			c-0.53,0.03-1.05,0.04-1.56,0.04c-0.5,0-1.02-0.01-1.54-0.04c-0.52-0.03-1.06-0.09-1.62-0.18V224.6z"/>
		<path d="M972.28,243.79c2.7,0.06,4.69,0.66,5.96,1.8c1.28,1.14,1.91,2.77,1.91,4.87c0,1.25-0.33,2.38-0.98,3.41
			c-0.65,1.02-1.54,1.89-2.67,2.6c-1.13,0.71-2.46,1.26-4.01,1.65s-3.21,0.58-4.99,0.58s-3.29-0.14-4.54-0.42
			c-1.25-0.28-2.26-0.68-3.05-1.18c-0.79-0.5-1.35-1.13-1.69-1.87c-0.34-0.74-0.51-1.56-0.51-2.45c0-1.33,0.32-2.43,0.96-3.29
			c0.64-0.86,1.49-1.62,2.56-2.27c-0.68-0.42-1.22-0.93-1.62-1.54c-0.4-0.61-0.6-1.39-0.6-2.34c0-1.13,0.24-2.05,0.71-2.76
			s1.17-1.39,2.09-2.05c-1.04-0.74-1.84-1.65-2.4-2.71s-0.85-2.25-0.85-3.56c0-1.16,0.22-2.23,0.67-3.23s1.09-1.85,1.94-2.58
			c0.85-0.73,1.88-1.3,3.09-1.71c1.22-0.42,2.58-0.62,4.09-0.62c1.48,0,2.85,0.23,4.1,0.69c1.25,0.46,2.28,1.05,3.12,1.76
			c0.56-0.74,1.26-1.3,2.09-1.67c0.83-0.37,1.96-0.56,3.38-0.56c0.06,0.39,0.11,0.76,0.16,1.13c0.04,0.37,0.07,0.76,0.07,1.18
			c0,0.47-0.02,0.95-0.04,1.42s-0.09,0.96-0.18,1.47h-3.61c0.15,0.3,0.28,0.65,0.4,1.07c0.12,0.42,0.18,0.96,0.18,1.65
			c0,1.16-0.21,2.23-0.64,3.23c-0.43,0.99-1.06,1.85-1.89,2.56s-1.85,1.28-3.05,1.69c-1.2,0.42-2.56,0.62-4.07,0.62
			c-1.28,0-2.42-0.13-3.43-0.4c-0.5,0.33-0.82,0.68-0.93,1.05c-0.12,0.37-0.18,0.72-0.18,1.05c0,0.48,0.16,0.86,0.47,1.16
			c0.31,0.3,0.94,0.46,1.89,0.49L972.28,243.79z M966.59,248.41c-0.65-0.03-1.2,0.04-1.62,0.22c-0.43,0.18-0.77,0.41-1.02,0.69
			c-0.25,0.28-0.43,0.59-0.53,0.93c-0.1,0.34-0.16,0.67-0.16,1c0,1.13,0.42,1.89,1.27,2.29s1.98,0.6,3.41,0.6
			c1.87,0,3.38-0.3,4.52-0.89c1.14-0.59,1.71-1.4,1.71-2.4c0-0.3-0.04-0.58-0.11-0.85c-0.07-0.27-0.22-0.51-0.42-0.73
			c-0.21-0.22-0.5-0.41-0.87-0.56c-0.37-0.15-0.87-0.22-1.49-0.22L966.59,248.41z M968.41,236.26c1.25,0,2.14-0.36,2.69-1.07
			c0.55-0.71,0.82-1.69,0.82-2.94c0-1.25-0.28-2.23-0.82-2.96c-0.55-0.73-1.45-1.09-2.69-1.09c-1.28,0-2.2,0.36-2.76,1.09
			c-0.56,0.73-0.85,1.71-0.85,2.96c0,1.25,0.28,2.23,0.85,2.94C966.21,235.91,967.13,236.26,968.41,236.26z"/>
	</g>
	<g>
		<circle class="st2" cx="479.46" cy="110.61" r="10.32"/>
		<circle class="st2" cx="479.46" cy="110.61" r="10.32"/>
		<circle class="st2" cx="507.03" cy="110.61" r="10.32"/>
	</g>
	<circle class="st7" cx="451.89" cy="110.61" r="10.32"/>
	<path class="st4" d="M433.38,108.98l0.01-0.02l-0.13-0.3c-0.04-0.1-0.09-0.21-0.13-0.31l-18.99-43.99
		c-1.34-3.08-4.25-5.15-7.61-5.39c-0.22-0.02-0.43-0.02-0.65-0.02c-3.09,0-6.03,1.63-7.66,4.26L379.9,92.83l-0.3,0.48l-0.44-0.36
		l-20.11-16.24c-1.6-1.29-3.6-2-5.66-2c-0.53,0-1.06,0.05-1.58,0.14c-2.57,0.46-4.81,2.01-6.14,4.24
		c-0.2,0.34-5.04,8.31-12.85,16.34c-6.78,6.97-17.12,15.27-27.93,15.27c-7,0-17.4-8.76-28.41-18.03
		c-22.03-18.56-52.21-43.97-99.59-43.97c-44.93,0-91.97,28.22-97,31.32l0,0.01c-2.74,1.56-4.59,4.5-4.59,7.87
		c0,5,4.05,9.05,9.05,9.05c1.52,0,2.95-0.38,4.21-1.04l0,0c0.01-0.01,0.03-0.02,0.04-0.02c0.29-0.15,0.56-0.32,0.83-0.5
		c7.69-4.59,49.77-28.69,87.45-28.69c40.82,0,66.98,22.03,88,39.74c14.18,11.95,26.43,22.26,40,22.26
		c22.62,0,41.09-19.74,50.09-31.5l0.31-0.41l0.4,0.32l20.55,16.59c1.59,1.29,3.6,1.99,5.66,1.99c0.5,0,1.01-0.04,1.51-0.13
		c2.54-0.43,4.78-1.94,6.14-4.14l14.44-23.33l0.5-0.81l0.38,0.88l11.77,27.12c0.03,0.06,0.07,0.12,0.09,0.18
		c1.36,3.21,4.54,5.47,8.25,5.47c4.94,0,8.95-4.01,8.95-8.95C433.92,110.95,433.72,109.93,433.38,108.98z"/>
</g>
</svg>
