<?xml version="1.0" encoding="utf-8"?>
<!-- Generator: Adobe Illustrator 23.1.1, SVG Export Plug-In . SVG Version: 6.00 Build 0)  -->
<svg version="1.1" id="Ebene_1" xmlns="http://www.w3.org/2000/svg" xmlns:xlink="http://www.w3.org/1999/xlink" x="0px" y="0px"
	 viewBox="0 0 175.3 159.13" style="enable-background:new 0 0 175.3 159.13;" xml:space="preserve">
<style type="text/css">
	.st0{fill:#141412;}
</style>
<g>
	<g>
		<path class="st0" d="M49.56,155.85c-0.41,0-0.81-0.07-1.21-0.22c-1.22-0.49-2.02-1.68-2.02-3V127.9H21.8
			c-14.24,0-17.99-12.75-17.99-19.49V22.78c0-15.42,11.77-19.5,17.99-19.5h131.67c14.27,0,18.02,12.75,18.02,19.5v85.63
			c0,15.43-11.79,19.49-18.02,19.49H77.74l-25.85,26.96C51.27,155.52,50.43,155.85,49.56,155.85z M21.8,9.74
			c-1.16,0.01-11.55,0.5-11.55,13.04v85.63c0.01,1.33,0.42,13.05,11.55,13.05h27.76c1.78,0,3.22,1.44,3.22,3.22v19.93l21.26-22.16
			c0.6-0.64,1.44-0.99,2.33-0.99h77.1c1.16-0.01,11.58-0.5,11.58-13.05V22.78c-0.01-1.32-0.42-13.04-11.58-13.04H21.8z"/>
	</g>
	<g>
		<path class="st0" d="M89.18,94.1c0.5,0.1,1.06,0.18,1.69,0.23c0.63,0.04,1.25,0.07,1.91,0.07c0.6,0,1.21-0.03,1.84-0.07
			c0.63-0.05,1.21-0.14,1.76-0.23V53.85l23.54,40.26c0.55,0.1,1.13,0.18,1.76,0.23c0.63,0.04,1.21,0.07,1.76,0.07
			c0.56,0,1.15-0.03,1.77-0.07c0.63-0.05,1.21-0.14,1.76-0.23V40.2c-0.55-0.11-1.13-0.18-1.73-0.23c-0.6-0.05-1.17-0.08-1.72-0.08
			c-0.65,0-1.3,0.03-1.95,0.08c-0.65,0.05-1.28,0.12-1.88,0.23v40.49L96.23,40.2c-0.55-0.11-1.13-0.18-1.76-0.23
			c-0.63-0.05-1.21-0.08-1.77-0.08c-0.55,0-1.13,0.03-1.76,0.08c-0.63,0.05-1.21,0.12-1.76,0.23V94.1z M48.99,94.1h30.22
			c0.1-0.5,0.15-1.05,0.18-1.65c0.03-0.6,0.04-1.17,0.04-1.72c0-1.2-0.07-2.3-0.22-3.31H56.64V68.99h17.54
			c0.1-0.5,0.18-1.05,0.23-1.66c0.04-0.59,0.07-1.17,0.07-1.72s-0.03-1.12-0.07-1.69c-0.05-0.57-0.14-1.1-0.23-1.61H56.64V46.87
			h21.98c0.1-0.5,0.15-1.05,0.18-1.65s0.04-1.17,0.04-1.72c0-1.2-0.07-2.3-0.22-3.3H48.99V94.1z"/>
	</g>
</g>
</svg>
