<?xml version="1.0" encoding="utf-8"?>
<!-- Generator: Adobe Illustrator 23.1.1, SVG Export Plug-In . SVG Version: 6.00 Build 0)  -->
<svg version="1.1" id="Ebene_1" xmlns="http://www.w3.org/2000/svg" xmlns:xlink="http://www.w3.org/1999/xlink" x="0px" y="0px"
	 viewBox="0 0 175.3 159.13" style="enable-background:new 0 0 175.3 159.13;" xml:space="preserve">
<style type="text/css">
	.st0{fill:#141412;}
</style>
<g>
	<g>
		<path class="st0" d="M49.56,155.85c-0.41,0-0.81-0.07-1.21-0.22c-1.22-0.49-2.02-1.68-2.02-3V127.9H21.81
			C7.57,127.9,3.8,115.15,3.8,108.4V22.78c0-15.42,11.78-19.5,18.01-19.5h131.67c14.27,0,18.02,12.75,18.02,19.5v85.63
			c0,15.43-11.79,19.49-18.02,19.49H77.75L51.9,154.86C51.27,155.52,50.43,155.85,49.56,155.85z M21.81,9.74
			c-1.16,0.01-11.55,0.5-11.55,13.04v85.63c0.01,1.33,0.41,13.05,11.55,13.05h27.75c1.78,0,3.23,1.44,3.23,3.22v19.93l21.24-22.16
			c0.61-0.64,1.45-0.99,2.33-0.99h77.11c1.16-0.01,11.58-0.5,11.58-13.05V22.78c-0.01-1.32-0.42-13.04-11.58-13.04H21.81z"/>
	</g>
	<g>
		<path class="st0" d="M98.6,92.72h30.21c0.11-0.5,0.16-1.05,0.19-1.65c0.03-0.6,0.04-1.17,0.04-1.72c0-1.2-0.08-2.3-0.23-3.31
			h-22.56V67.61h17.54c0.1-0.5,0.18-1.05,0.22-1.66c0.05-0.59,0.08-1.17,0.08-1.72s-0.03-1.12-0.08-1.69
			c-0.04-0.57-0.12-1.1-0.22-1.61h-17.54V45.48h21.96c0.11-0.5,0.16-1.05,0.19-1.65s0.04-1.17,0.04-1.72c0-1.2-0.08-2.3-0.23-3.3
			H98.6V92.72z M53.91,45.12c0.85-0.15,1.84-0.25,2.96-0.27c1.13-0.03,2.17-0.03,3.12-0.03c2.89,0,5.53,0.37,7.93,1.12
			c2.41,0.75,4.47,1.96,6.19,3.64c1.73,1.68,3.07,3.83,4.01,6.49c0.95,2.64,1.43,5.85,1.43,9.58c0,4.1-0.48,7.51-1.43,10.24
			c-0.94,2.73-2.29,4.89-4.05,6.49c-1.74,1.59-3.83,2.74-6.26,3.41c-2.43,0.68-5.11,1.02-8.06,1.02c-1.15,0-2.24-0.04-3.26-0.12
			c-1.02-0.07-1.89-0.16-2.59-0.26V45.12z M46.26,92.72c1.65,0.25,3.63,0.46,5.92,0.64c2.3,0.18,4.63,0.26,6.98,0.26
			c9.45,0,16.56-2.28,21.33-6.82c4.77-4.55,7.16-11.53,7.16-20.93c0-9-2.33-15.9-7.01-20.69c-4.68-4.8-11.74-7.2-21.18-7.2
			c-2.3,0-4.65,0.08-7.05,0.26c-2.4,0.18-4.44,0.37-6.15,0.57V92.72z"/>
	</g>
</g>
</svg>
