<?xml version="1.0" encoding="UTF-8"?>
<!-- Generator: Adobe Illustrator 23.1.1, SVG Export Plug-In . SVG Version: 6.00 Build 0)  -->
<svg version="1.1" id="REINZEICHNUNG_DE" xmlns="http://www.w3.org/2000/svg" xmlns:xlink="http://www.w3.org/1999/xlink" x="0px" y="0px" viewBox="0 0 468.96 309.19" style="" xml:space="preserve">
<style type="text/css">
	.st0{display:none;}
	.st1{display:inline;}
	.st2{fill:#32A05A;}
	.st3{display:inline;fill:#5AB987;}
	.st4{fill:#8CCDB4;}
	.st5{fill:#FFFFFF;}
	.st6{fill:#319E59;}
	.st7{fill:#5AB987;}
</style>
<g id="Text_x2F_Layout" class="st0">
</g>
<g id="PFADE">
	<g>
		<path class="st2" d="M67.88,133.81c-1-0.38-1.89-0.8-2.68-1.25s-1.47-1-2.02-1.63s-0.99-1.38-1.3-2.26    c-0.31-0.88-0.46-1.93-0.46-3.17c0-1.49,0.26-2.81,0.77-3.96c0.51-1.14,1.24-2.1,2.18-2.88c0.94-0.78,2.07-1.36,3.38-1.76    s2.8-0.59,4.44-0.59c1.5,0,2.89,0.13,4.2,0.4s2.67,0.64,4.11,1.14c-0.18,1.7-0.64,3.37-1.41,5.01c-0.44-0.18-0.89-0.35-1.34-0.53    c-0.46-0.18-0.94-0.32-1.45-0.44c-0.51-0.12-1.09-0.21-1.74-0.29c-0.65-0.07-1.38-0.11-2.2-0.11c-0.5,0-1,0.04-1.52,0.13    c-0.51,0.09-0.97,0.25-1.38,0.48c-0.41,0.24-0.75,0.58-1.01,1.03s-0.4,1.05-0.4,1.78c0,0.59,0.1,1.08,0.31,1.47    s0.48,0.73,0.83,1.01c0.35,0.28,0.75,0.51,1.19,0.7c0.44,0.19,0.88,0.37,1.32,0.55l2.64,1.01c1.11,0.44,2.12,0.89,3.03,1.36    c0.91,0.47,1.68,1.05,2.31,1.74c0.63,0.69,1.12,1.52,1.47,2.5c0.35,0.98,0.53,2.19,0.53,3.63c0,1.49-0.27,2.86-0.81,4.09    c-0.54,1.23-1.33,2.29-2.35,3.17s-2.29,1.57-3.8,2.07s-3.25,0.75-5.21,0.75c-0.97,0-1.83-0.03-2.59-0.09    c-0.76-0.06-1.49-0.15-2.18-0.29s-1.37-0.3-2.04-0.51s-1.38-0.45-2.11-0.75c0.09-0.85,0.25-1.74,0.48-2.66s0.51-1.85,0.83-2.79    c1.23,0.5,2.39,0.87,3.47,1.12c1.08,0.25,2.24,0.37,3.47,0.37c1.85,0,3.3-0.34,4.35-1.03c1.05-0.69,1.58-1.74,1.58-3.14    c0-0.7-0.12-1.29-0.37-1.76s-0.57-0.86-0.97-1.19s-0.84-0.59-1.34-0.81s-1.01-0.43-1.54-0.64L67.88,133.81z"/>
		<path class="st2" d="M86.32,125.68c0.41-0.09,0.81-0.15,1.21-0.18c0.4-0.03,0.84-0.04,1.34-0.04c0.82,0,1.65,0.09,2.5,0.26    c0.09,0.15,0.17,0.36,0.24,0.64c0.07,0.28,0.15,0.58,0.22,0.9s0.13,0.64,0.18,0.94c0.04,0.31,0.08,0.56,0.11,0.77    c0.26-0.47,0.59-0.93,0.97-1.38c0.38-0.45,0.84-0.86,1.38-1.21c0.54-0.35,1.15-0.64,1.82-0.86s1.42-0.33,2.24-0.33    c1.26,0,2.44,0.24,3.54,0.7c1.1,0.47,2.06,1.18,2.88,2.13c0.82,0.95,1.46,2.15,1.91,3.58c0.45,1.44,0.68,3.14,0.68,5.1    c0,1.9-0.28,3.61-0.83,5.12c-0.56,1.51-1.36,2.79-2.42,3.85s-2.34,1.87-3.87,2.44c-1.52,0.57-3.25,0.86-5.19,0.86    c-0.5,0-0.99-0.02-1.47-0.07s-0.89-0.1-1.21-0.15v10.11c-0.56,0.09-1.09,0.15-1.6,0.18s-1.02,0.04-1.52,0.04    c-0.5,0-1-0.01-1.52-0.04s-1.05-0.09-1.6-0.18V125.68z M92.56,143.61c0.79,0.24,1.7,0.35,2.72,0.35c1.82,0,3.21-0.59,4.18-1.76    c0.97-1.17,1.45-2.94,1.45-5.32c0-0.91-0.07-1.75-0.22-2.53c-0.15-0.78-0.4-1.44-0.75-2c-0.35-0.56-0.8-1-1.34-1.32    c-0.54-0.32-1.21-0.48-2-0.48c-0.73,0-1.36,0.14-1.87,0.42c-0.51,0.28-0.93,0.66-1.25,1.14s-0.56,1.05-0.7,1.69    c-0.15,0.65-0.22,1.33-0.22,2.07V143.61z"/>
		<path class="st2" d="M117.33,139c0.12,1.76,0.73,3.03,1.85,3.82c1.11,0.79,2.58,1.19,4.4,1.19c1,0,2.01-0.1,3.05-0.29    s2.03-0.46,2.97-0.81c0.32,0.59,0.6,1.29,0.83,2.11s0.37,1.7,0.4,2.64c-2.29,0.88-4.86,1.32-7.73,1.32    c-2.11,0-3.92-0.29-5.43-0.88s-2.74-1.4-3.69-2.44c-0.95-1.04-1.66-2.28-2.11-3.71c-0.46-1.43-0.68-3-0.68-4.7    c0-1.67,0.23-3.24,0.7-4.7c0.47-1.46,1.17-2.74,2.09-3.82c0.92-1.08,2.07-1.94,3.43-2.57c1.36-0.63,2.95-0.95,4.77-0.95    c1.58,0,2.99,0.28,4.22,0.84s2.28,1.32,3.14,2.29c0.86,0.97,1.52,2.12,1.96,3.45s0.66,2.76,0.66,4.29c0,0.56-0.02,1.11-0.07,1.65    c-0.04,0.54-0.1,0.97-0.15,1.3H117.33z M126.25,134.65c-0.06-1.41-0.45-2.54-1.17-3.41s-1.72-1.3-3.01-1.3    c-1.46,0-2.58,0.41-3.34,1.23c-0.76,0.82-1.22,1.98-1.36,3.47H126.25z"/>
		<path class="st2" d="M134.77,147.92l10.24-17.4h-8.7c-0.09-0.44-0.15-0.86-0.18-1.27s-0.04-0.82-0.04-1.23    c0-0.38,0.01-0.75,0.04-1.12c0.03-0.37,0.09-0.75,0.18-1.16h17.89l0.22,0.53L144,143.66h9.67c0.09,0.44,0.15,0.87,0.18,1.28    s0.04,0.82,0.04,1.23c0,0.38-0.01,0.75-0.04,1.12c-0.03,0.37-0.09,0.75-0.18,1.17h-18.55L134.77,147.92z"/>
		<path class="st2" d="M160.43,130.47h-2.94c-0.09-0.38-0.15-0.78-0.2-1.21c-0.04-0.42-0.07-0.83-0.07-1.21    c0-0.79,0.09-1.57,0.26-2.33h9.05v22.72c-1.05,0.18-2.08,0.26-3.08,0.26c-0.97,0-1.98-0.09-3.03-0.26V130.47z M159.51,121.9    c-0.18-1-0.26-1.98-0.26-2.94c0-0.94,0.09-1.92,0.26-2.95c0.5-0.09,1.03-0.15,1.6-0.2s1.09-0.07,1.56-0.07    c0.5,0,1.04,0.02,1.63,0.07c0.59,0.04,1.13,0.11,1.63,0.2c0.09,0.5,0.15,0.99,0.18,1.47s0.04,0.97,0.04,1.47    c0,0.47-0.01,0.95-0.04,1.45s-0.09,1-0.18,1.49c-0.5,0.09-1.03,0.15-1.6,0.18c-0.57,0.03-1.11,0.04-1.6,0.04    c-0.47,0-1-0.01-1.58-0.04C160.55,122.05,160.01,121.99,159.51,121.9z"/>
		<path class="st2" d="M183.9,133.5c0-0.7-0.12-1.27-0.35-1.71c-0.24-0.44-0.56-0.78-0.97-1.03s-0.92-0.42-1.52-0.51    c-0.6-0.09-1.27-0.13-2-0.13c-1.58,0-3.27,0.31-5.05,0.92c-0.41-0.76-0.72-1.48-0.92-2.15s-0.31-1.48-0.31-2.42    c1.29-0.44,2.58-0.76,3.87-0.97c1.29-0.2,2.49-0.31,3.6-0.31c3.05,0,5.43,0.73,7.14,2.2c1.71,1.46,2.57,3.81,2.57,7.03v13.19    c-1.03,0.32-2.27,0.63-3.74,0.92c-1.47,0.29-3.12,0.44-4.97,0.44c-1.49,0-2.86-0.13-4.11-0.4s-2.31-0.7-3.21-1.32    c-0.89-0.62-1.58-1.41-2.07-2.37s-0.73-2.15-0.73-3.56s0.3-2.58,0.9-3.54c0.6-0.95,1.38-1.71,2.33-2.29s2.01-0.98,3.19-1.23    s2.34-0.37,3.52-0.37c0.85,0,1.79,0.04,2.81,0.13V133.5z M183.9,138.03c-0.35-0.06-0.73-0.11-1.14-0.15s-0.78-0.07-1.1-0.07    c-1.44,0-2.57,0.26-3.41,0.77c-0.83,0.51-1.25,1.34-1.25,2.48c0,0.76,0.16,1.35,0.48,1.76c0.32,0.41,0.71,0.71,1.17,0.9    c0.45,0.19,0.94,0.31,1.45,0.35c0.51,0.04,0.96,0.07,1.34,0.07c0.44,0,0.88-0.04,1.32-0.11s0.82-0.14,1.14-0.2V138.03z"/>
		<path class="st2" d="M195.35,116.32c1.05-0.18,2.09-0.26,3.12-0.26c1,0,2.02,0.09,3.08,0.26v23.07c0,0.91,0.05,1.64,0.15,2.2    c0.1,0.56,0.26,0.99,0.48,1.3s0.5,0.52,0.86,0.64c0.35,0.12,0.79,0.18,1.32,0.18c0.23,0,0.49-0.01,0.77-0.04    c0.28-0.03,0.55-0.07,0.81-0.13c0.32,1.2,0.48,2.37,0.48,3.52c0,0.23,0,0.45,0,0.64c0,0.19-0.03,0.4-0.09,0.64    c-0.47,0.15-1.03,0.25-1.69,0.31s-1.27,0.09-1.82,0.09c-2.26,0-4.07-0.62-5.43-1.87c-1.36-1.25-2.04-3.27-2.04-6.09V116.32z"/>
		<path class="st2" d="M210.07,125.68c0.41-0.09,0.81-0.15,1.21-0.18c0.4-0.03,0.84-0.04,1.34-0.04c0.82,0,1.65,0.09,2.5,0.26    c0.09,0.15,0.17,0.36,0.24,0.64c0.07,0.28,0.15,0.58,0.22,0.9s0.13,0.64,0.18,0.94c0.04,0.31,0.08,0.56,0.11,0.77    c0.26-0.47,0.59-0.93,0.97-1.38c0.38-0.45,0.84-0.86,1.38-1.21c0.54-0.35,1.15-0.64,1.82-0.86s1.42-0.33,2.24-0.33    c1.26,0,2.44,0.24,3.54,0.7c1.1,0.47,2.06,1.18,2.88,2.13c0.82,0.95,1.46,2.15,1.91,3.58c0.45,1.44,0.68,3.14,0.68,5.1    c0,1.9-0.28,3.61-0.83,5.12c-0.56,1.51-1.36,2.79-2.42,3.85s-2.34,1.87-3.87,2.44c-1.52,0.57-3.25,0.86-5.19,0.86    c-0.5,0-0.99-0.02-1.47-0.07s-0.89-0.1-1.21-0.15v10.11c-0.56,0.09-1.09,0.15-1.6,0.18s-1.02,0.04-1.52,0.04    c-0.5,0-1-0.01-1.52-0.04s-1.05-0.09-1.6-0.18V125.68z M216.31,143.61c0.79,0.24,1.7,0.35,2.72,0.35c1.82,0,3.21-0.59,4.18-1.76    c0.97-1.17,1.45-2.94,1.45-5.32c0-0.91-0.07-1.75-0.22-2.53c-0.15-0.78-0.4-1.44-0.75-2c-0.35-0.56-0.8-1-1.34-1.32    c-0.54-0.32-1.21-0.48-2-0.48c-0.73,0-1.36,0.14-1.87,0.42c-0.51,0.28-0.93,0.66-1.25,1.14s-0.56,1.05-0.7,1.69    c-0.15,0.65-0.22,1.33-0.22,2.07V143.61z"/>
		<path class="st2" d="M247.46,133.5c0-0.7-0.12-1.27-0.35-1.71c-0.24-0.44-0.56-0.78-0.97-1.03s-0.92-0.42-1.52-0.51    c-0.6-0.09-1.27-0.13-2-0.13c-1.58,0-3.27,0.31-5.05,0.92c-0.41-0.76-0.72-1.48-0.92-2.15s-0.31-1.48-0.31-2.42    c1.29-0.44,2.58-0.76,3.87-0.97c1.29-0.2,2.49-0.31,3.6-0.31c3.05,0,5.43,0.73,7.14,2.2c1.71,1.46,2.57,3.81,2.57,7.03v13.19    c-1.03,0.32-2.27,0.63-3.74,0.92c-1.47,0.29-3.12,0.44-4.97,0.44c-1.49,0-2.86-0.13-4.11-0.4s-2.31-0.7-3.21-1.32    c-0.89-0.62-1.58-1.41-2.07-2.37s-0.73-2.15-0.73-3.56s0.3-2.58,0.9-3.54c0.6-0.95,1.38-1.71,2.33-2.29s2.01-0.98,3.19-1.23    s2.34-0.37,3.52-0.37c0.85,0,1.79,0.04,2.81,0.13V133.5z M247.46,138.03c-0.35-0.06-0.73-0.11-1.14-0.15s-0.78-0.07-1.1-0.07    c-1.44,0-2.57,0.26-3.41,0.77c-0.83,0.51-1.25,1.34-1.25,2.48c0,0.76,0.16,1.35,0.48,1.76c0.32,0.41,0.71,0.71,1.17,0.9    c0.45,0.19,0.94,0.31,1.45,0.35c0.51,0.04,0.96,0.07,1.34,0.07c0.44,0,0.88-0.04,1.32-0.11s0.82-0.14,1.14-0.2V138.03z"/>
		<path class="st2" d="M258.93,116.32c1-0.18,2.02-0.26,3.08-0.26s2.09,0.09,3.12,0.26v32.13c-1.03,0.18-2.07,0.26-3.12,0.26    s-2.08-0.09-3.08-0.26V116.32z M266.01,136.54l5.63-10.81c1.14-0.18,2.3-0.26,3.47-0.26c1.11,0,2.2,0.09,3.25,0.26l-5.8,10.5    l6.77,12.22c-1.2,0.18-2.36,0.26-3.47,0.26c-1.03,0-2.11-0.09-3.25-0.26L266.01,136.54z"/>
		<path class="st2" d="M287.09,139c0.12,1.76,0.73,3.03,1.85,3.82c1.11,0.79,2.58,1.19,4.4,1.19c1,0,2.01-0.1,3.05-0.29    s2.03-0.46,2.97-0.81c0.32,0.59,0.6,1.29,0.83,2.11s0.37,1.7,0.4,2.64c-2.29,0.88-4.86,1.32-7.73,1.32    c-2.11,0-3.92-0.29-5.43-0.88s-2.74-1.4-3.69-2.44c-0.95-1.04-1.66-2.28-2.11-3.71c-0.46-1.43-0.68-3-0.68-4.7    c0-1.67,0.23-3.24,0.7-4.7c0.47-1.46,1.17-2.74,2.09-3.82c0.92-1.08,2.07-1.94,3.43-2.57c1.36-0.63,2.95-0.95,4.77-0.95    c1.58,0,2.99,0.28,4.22,0.84s2.28,1.32,3.14,2.29c0.86,0.97,1.52,2.12,1.96,3.45s0.66,2.76,0.66,4.29c0,0.56-0.02,1.11-0.07,1.65    c-0.04,0.54-0.1,0.97-0.15,1.3H287.09z M296.02,134.65c-0.06-1.41-0.45-2.54-1.17-3.41s-1.72-1.3-3.01-1.3    c-1.46,0-2.58,0.41-3.34,1.23c-0.76,0.82-1.22,1.98-1.36,3.47H296.02z"/>
		<path class="st2" d="M307.44,130.47h-2.86l-0.22-0.88l8.22-10.5h1.01v6.64h5.32c0.09,0.44,0.15,0.83,0.18,1.19    c0.03,0.35,0.04,0.72,0.04,1.1c0,0.41-0.02,0.81-0.04,1.19c-0.03,0.38-0.09,0.81-0.18,1.27h-5.32v8.92c0,0.91,0.07,1.64,0.22,2.2    c0.15,0.56,0.36,1,0.64,1.32c0.28,0.32,0.62,0.54,1.03,0.66c0.41,0.12,0.89,0.18,1.45,0.18c0.44,0,0.87-0.04,1.3-0.11    s0.8-0.14,1.12-0.2c0.2,0.56,0.35,1.14,0.44,1.74c0.09,0.6,0.13,1.14,0.13,1.6c0,0.32-0.01,0.59-0.02,0.81s-0.04,0.43-0.07,0.64    c-1.35,0.32-2.74,0.48-4.18,0.48c-2.67,0-4.7-0.62-6.11-1.87c-1.41-1.25-2.11-3.27-2.11-6.09V130.47z"/>
		<path class="st2" d="M328.32,139c0.12,1.76,0.73,3.03,1.85,3.82c1.11,0.79,2.58,1.19,4.4,1.19c1,0,2.01-0.1,3.05-0.29    s2.03-0.46,2.97-0.81c0.32,0.59,0.6,1.29,0.83,2.11s0.37,1.7,0.4,2.64c-2.29,0.88-4.86,1.32-7.73,1.32    c-2.11,0-3.92-0.29-5.43-0.88s-2.74-1.4-3.69-2.44c-0.95-1.04-1.66-2.28-2.11-3.71c-0.46-1.43-0.68-3-0.68-4.7    c0-1.67,0.23-3.24,0.7-4.7c0.47-1.46,1.17-2.74,2.09-3.82c0.92-1.08,2.07-1.94,3.43-2.57c1.36-0.63,2.95-0.95,4.77-0.95    c1.58,0,2.99,0.28,4.22,0.84s2.28,1.32,3.14,2.29c0.86,0.97,1.52,2.12,1.96,3.45s0.66,2.76,0.66,4.29c0,0.56-0.02,1.11-0.07,1.65    c-0.04,0.54-0.1,0.97-0.15,1.3H328.32z M337.24,134.65c-0.06-1.41-0.45-2.54-1.17-3.41s-1.72-1.3-3.01-1.3    c-1.46,0-2.58,0.41-3.34,1.23c-0.76,0.82-1.22,1.98-1.36,3.47H337.24z"/>
		<path class="st2" d="M347.97,125.73c0.44-0.09,0.86-0.15,1.25-0.2s0.83-0.07,1.3-0.07c0.44,0,0.87,0.03,1.3,0.09    c0.42,0.06,0.84,0.13,1.25,0.22c0.09,0.15,0.17,0.36,0.24,0.64c0.07,0.28,0.14,0.57,0.2,0.88c0.06,0.31,0.11,0.62,0.15,0.92    c0.04,0.31,0.08,0.56,0.11,0.77c0.64-0.91,1.44-1.72,2.37-2.44c0.94-0.72,2.11-1.08,3.52-1.08c0.29,0,0.63,0.02,1.01,0.04    c0.38,0.03,0.66,0.07,0.83,0.13c0.06,0.29,0.1,0.63,0.13,1.01c0.03,0.38,0.04,0.78,0.04,1.19c0,0.5-0.02,1.04-0.07,1.63    s-0.12,1.14-0.24,1.67c-0.32-0.06-0.68-0.09-1.08-0.09s-0.64,0-0.72,0c-0.5,0-1.06,0.05-1.67,0.15s-1.2,0.37-1.76,0.81    s-1.02,1.1-1.38,1.98c-0.37,0.88-0.55,2.11-0.55,3.69v10.81c-0.53,0.09-1.05,0.15-1.58,0.18s-1.04,0.04-1.54,0.04    c-0.5,0-1-0.01-1.52-0.04s-1.05-0.09-1.6-0.18V125.73z"/>
		<path class="st2" d="M63.62,181.61h-3.6c-0.09-0.47-0.15-0.89-0.18-1.27s-0.04-0.78-0.04-1.19c0-0.38,0.01-0.75,0.04-1.1    s0.09-0.75,0.18-1.19h3.6v-1.1c0-1.41,0.21-2.66,0.64-3.76c0.42-1.1,1.03-2.02,1.82-2.77s1.74-1.32,2.83-1.71    c1.1-0.4,2.31-0.59,3.62-0.59c0.88,0,1.62,0.04,2.22,0.11s1.25,0.21,1.96,0.42c-0.06,0.97-0.15,1.84-0.29,2.62    c-0.13,0.78-0.34,1.55-0.64,2.31c-0.32-0.06-0.66-0.12-1.01-0.2s-0.82-0.11-1.41-0.11c-1.03,0-1.86,0.24-2.51,0.73    s-1,1.52-1.05,3.1v0.97h5.27c0.09,0.47,0.15,0.89,0.18,1.27c0.03,0.38,0.04,0.78,0.04,1.19c0,0.38-0.02,0.75-0.04,1.1    c-0.03,0.35-0.09,0.75-0.18,1.19h-5.27v17.98c-1.05,0.18-2.08,0.26-3.08,0.26c-1.03,0-2.07-0.09-3.12-0.26V181.61z"/>
		<path class="st2" d="M79,176.87c1.05-0.18,2.09-0.26,3.12-0.26c1.03,0,2.07,0.09,3.12,0.26v12.04c0,1.2,0.09,2.19,0.29,2.97    c0.19,0.78,0.48,1.39,0.88,1.85s0.89,0.78,1.47,0.97s1.27,0.29,2.07,0.29c1.08,0,1.99-0.1,2.73-0.31v-17.8    c1.05-0.18,2.08-0.26,3.08-0.26c1.03,0,2.07,0.09,3.12,0.26v21.84c-0.94,0.32-2.17,0.64-3.71,0.95c-1.54,0.31-3.14,0.46-4.81,0.46    c-1.5,0-2.93-0.12-4.31-0.35c-1.38-0.23-2.59-0.73-3.63-1.49s-1.87-1.88-2.48-3.34c-0.62-1.46-0.92-3.41-0.92-5.84V176.87z     M81.55,173.53c-0.06-0.44-0.11-0.87-0.15-1.3s-0.07-0.86-0.07-1.3c0-0.41,0.02-0.83,0.07-1.27s0.09-0.88,0.15-1.32    c0.44-0.09,0.92-0.15,1.43-0.2s0.97-0.07,1.38-0.07c0.41,0,0.87,0.02,1.38,0.07c0.51,0.04,1,0.11,1.47,0.2    c0.09,0.44,0.15,0.87,0.18,1.3c0.03,0.43,0.04,0.86,0.04,1.3c0,0.41-0.01,0.83-0.04,1.27s-0.09,0.88-0.18,1.32    c-0.47,0.09-0.95,0.15-1.45,0.18c-0.5,0.03-0.97,0.04-1.41,0.04c-0.38,0-0.83-0.01-1.36-0.04    C82.47,173.68,81.99,173.62,81.55,173.53z M91.27,173.53c-0.18-0.88-0.26-1.74-0.26-2.59s0.09-1.71,0.26-2.59    c0.44-0.09,0.92-0.15,1.43-0.2s0.97-0.07,1.38-0.07c0.41,0,0.87,0.02,1.38,0.07c0.51,0.04,1,0.11,1.47,0.2    c0.06,0.44,0.1,0.87,0.13,1.3c0.03,0.43,0.04,0.86,0.04,1.3c0,0.41-0.01,0.83-0.04,1.27s-0.07,0.88-0.13,1.32    c-0.47,0.09-0.96,0.15-1.47,0.18c-0.51,0.03-0.97,0.04-1.38,0.04c-0.41,0-0.87-0.01-1.38-0.04    C92.18,173.68,91.7,173.62,91.27,173.53z"/>
		<path class="st2" d="M104.56,176.87c0.44-0.09,0.86-0.15,1.25-0.2s0.83-0.07,1.3-0.07c0.44,0,0.87,0.03,1.3,0.09    c0.42,0.06,0.84,0.13,1.25,0.22c0.09,0.15,0.17,0.36,0.24,0.64c0.07,0.28,0.14,0.57,0.2,0.88c0.06,0.31,0.11,0.62,0.15,0.92    s0.08,0.56,0.11,0.77c0.64-0.91,1.44-1.72,2.37-2.44c0.94-0.72,2.11-1.08,3.52-1.08c0.29,0,0.63,0.02,1.01,0.04    c0.38,0.03,0.66,0.07,0.83,0.13c0.06,0.29,0.1,0.63,0.13,1.01c0.03,0.38,0.04,0.78,0.04,1.19c0,0.5-0.02,1.04-0.07,1.63    s-0.12,1.14-0.24,1.67c-0.32-0.06-0.68-0.09-1.08-0.09s-0.64,0-0.72,0c-0.5,0-1.06,0.05-1.67,0.15s-1.2,0.37-1.76,0.81    s-1.02,1.1-1.38,1.98c-0.37,0.88-0.55,2.11-0.55,3.69v10.81c-0.53,0.09-1.05,0.15-1.58,0.18s-1.04,0.04-1.54,0.04    c-0.5,0-1-0.01-1.52-0.04s-1.05-0.09-1.6-0.18V176.87z"/>
		<path class="st2" d="M132.86,167.95c0.94-0.15,2.02-0.26,3.25-0.35c1.23-0.09,2.77-0.13,4.61-0.13c1.61,0,3.13,0.13,4.57,0.4    c1.43,0.26,2.69,0.71,3.76,1.34c1.07,0.63,1.91,1.47,2.53,2.53s0.92,2.37,0.92,3.96c0,0.94-0.14,1.81-0.42,2.62    c-0.28,0.81-0.65,1.51-1.12,2.11c-0.47,0.6-1,1.1-1.58,1.5s-1.19,0.64-1.8,0.72c0.67,0.09,1.42,0.29,2.24,0.62    c0.82,0.32,1.58,0.8,2.29,1.43c0.7,0.63,1.29,1.44,1.76,2.44c0.47,1,0.7,2.2,0.7,3.6c0,1.91-0.36,3.46-1.08,4.68    s-1.69,2.18-2.9,2.88c-1.22,0.7-2.62,1.19-4.22,1.45s-3.27,0.4-5.03,0.4c-1.35,0-2.68-0.04-4-0.11c-1.32-0.07-2.81-0.21-4.48-0.42    V167.95z M141.17,180.78c0.73,0,1.41-0.07,2.04-0.2c0.63-0.13,1.18-0.37,1.65-0.7c0.47-0.34,0.83-0.79,1.1-1.36s0.4-1.3,0.4-2.18    c0-0.85-0.15-1.54-0.46-2.09s-0.7-0.97-1.19-1.27s-1.03-0.51-1.63-0.62s-1.19-0.15-1.78-0.15c-0.82,0-1.51,0.04-2.07,0.13v8.44    H141.17z M139.23,194.76c0.41,0.06,0.89,0.1,1.43,0.13c0.54,0.03,1.03,0.04,1.47,0.04c0.62,0,1.26-0.06,1.93-0.18    c0.67-0.12,1.3-0.34,1.89-0.68c0.59-0.34,1.07-0.81,1.45-1.41s0.57-1.38,0.57-2.35c0-0.91-0.15-1.66-0.44-2.26    c-0.29-0.6-0.71-1.08-1.25-1.45c-0.54-0.37-1.19-0.62-1.93-0.77c-0.75-0.15-1.58-0.22-2.48-0.22h-2.64V194.76z"/>
		<path class="st2" d="M164.53,190.14c0.12,1.76,0.73,3.03,1.85,3.82c1.11,0.79,2.58,1.19,4.4,1.19c1,0,2.01-0.1,3.05-0.29    s2.03-0.46,2.97-0.81c0.32,0.59,0.6,1.29,0.83,2.11s0.37,1.7,0.4,2.64c-2.29,0.88-4.86,1.32-7.73,1.32    c-2.11,0-3.92-0.29-5.43-0.88s-2.74-1.4-3.69-2.44c-0.95-1.04-1.66-2.28-2.11-3.71c-0.46-1.43-0.68-3-0.68-4.7    c0-1.67,0.23-3.24,0.7-4.7c0.47-1.46,1.17-2.74,2.09-3.82s2.07-1.94,3.43-2.57c1.36-0.63,2.95-0.95,4.77-0.95    c1.58,0,2.99,0.28,4.22,0.84s2.28,1.32,3.14,2.29c0.86,0.97,1.52,2.12,1.96,3.45s0.66,2.76,0.66,4.29c0,0.56-0.02,1.11-0.07,1.65    c-0.04,0.54-0.1,0.97-0.15,1.3H164.53z M173.45,185.79c-0.06-1.41-0.45-2.54-1.17-3.41s-1.72-1.3-3.01-1.3    c-1.46,0-2.58,0.41-3.34,1.23c-0.76,0.82-1.22,1.98-1.36,3.47H173.45z"/>
		<path class="st2" d="M183.96,176.87c0.41-0.09,0.82-0.15,1.23-0.2s0.86-0.07,1.36-0.07c0.5,0,0.94,0.02,1.32,0.07    c0.38,0.04,0.78,0.11,1.19,0.2c0.09,0.15,0.17,0.36,0.24,0.64c0.07,0.28,0.14,0.57,0.2,0.88c0.06,0.31,0.11,0.61,0.15,0.9    s0.08,0.54,0.11,0.75c0.29-0.44,0.64-0.88,1.05-1.32s0.89-0.83,1.43-1.19c0.54-0.35,1.15-0.64,1.82-0.86s1.42-0.33,2.24-0.33    c2.58,0,4.52,0.7,5.82,2.11c1.3,1.41,1.96,3.62,1.96,6.64v14.5c-1.06,0.18-2.1,0.26-3.12,0.26s-2.07-0.09-3.12-0.26v-12.83    c0-1.58-0.24-2.8-0.73-3.65c-0.48-0.85-1.33-1.27-2.53-1.27c-0.5,0-1.01,0.07-1.54,0.22c-0.53,0.15-1,0.43-1.43,0.86    c-0.43,0.42-0.77,1.02-1.03,1.78c-0.26,0.76-0.4,1.76-0.4,2.99v11.91c-1.05,0.18-2.09,0.26-3.12,0.26c-1.03,0-2.07-0.09-3.12-0.26    V176.87z"/>
		<path class="st2" d="M214.68,190.14c0.12,1.76,0.73,3.03,1.85,3.82c1.11,0.79,2.58,1.19,4.4,1.19c1,0,2.01-0.1,3.05-0.29    s2.03-0.46,2.97-0.81c0.32,0.59,0.6,1.29,0.83,2.11s0.37,1.7,0.4,2.64c-2.29,0.88-4.86,1.32-7.73,1.32    c-2.11,0-3.92-0.29-5.43-0.88s-2.74-1.4-3.69-2.44c-0.95-1.04-1.66-2.28-2.11-3.71c-0.46-1.43-0.68-3-0.68-4.7    c0-1.67,0.23-3.24,0.7-4.7c0.47-1.46,1.17-2.74,2.09-3.82s2.07-1.94,3.43-2.57c1.36-0.63,2.95-0.95,4.77-0.95    c1.58,0,2.99,0.28,4.22,0.84s2.28,1.32,3.14,2.29c0.86,0.97,1.52,2.12,1.96,3.45s0.66,2.76,0.66,4.29c0,0.56-0.02,1.11-0.07,1.65    c-0.04,0.54-0.1,0.97-0.15,1.3H214.68z M223.6,185.79c-0.06-1.41-0.45-2.54-1.17-3.41s-1.72-1.3-3.01-1.3    c-1.46,0-2.58,0.41-3.34,1.23c-0.76,0.82-1.22,1.98-1.36,3.47H223.6z"/>
		<path class="st2" d="M233.97,167.46c1.05-0.18,2.09-0.26,3.12-0.26c1,0,2.02,0.09,3.08,0.26v23.07c0,0.91,0.05,1.64,0.15,2.2    c0.1,0.56,0.26,0.99,0.48,1.3s0.5,0.52,0.86,0.64c0.35,0.12,0.79,0.18,1.32,0.18c0.23,0,0.49-0.01,0.77-0.04    c0.28-0.03,0.55-0.07,0.81-0.13c0.32,1.2,0.48,2.37,0.48,3.52c0,0.23,0,0.45,0,0.64c0,0.19-0.03,0.4-0.09,0.64    c-0.47,0.15-1.03,0.25-1.69,0.31s-1.27,0.09-1.82,0.09c-2.26,0-4.07-0.62-5.43-1.87c-1.36-1.25-2.04-3.27-2.04-6.09V167.46z"/>
		<path class="st2" d="M247.82,176.87c1.05-0.18,2.09-0.26,3.12-0.26c1.03,0,2.07,0.09,3.12,0.26v12.04c0,1.2,0.09,2.19,0.29,2.97    c0.19,0.78,0.48,1.39,0.88,1.85s0.89,0.78,1.47,0.97s1.27,0.29,2.07,0.29c1.08,0,1.99-0.1,2.73-0.31v-17.8    c1.05-0.18,2.08-0.26,3.08-0.26c1.03,0,2.07,0.09,3.12,0.26v21.84c-0.94,0.32-2.17,0.64-3.71,0.95c-1.54,0.31-3.14,0.46-4.81,0.46    c-1.5,0-2.93-0.12-4.31-0.35c-1.38-0.23-2.59-0.73-3.63-1.49s-1.87-1.88-2.48-3.34c-0.62-1.46-0.92-3.41-0.92-5.84V176.87z"/>
		<path class="st2" d="M276.3,187.86l-4.35-10.99c0.97-0.18,2.04-0.26,3.21-0.26c1.11,0,2.24,0.09,3.38,0.26l3.47,11.12l-4.53,11.6    c-1.05,0.18-2.1,0.26-3.12,0.26s-2.11-0.09-3.25-0.26L276.3,187.86z M282.32,187.99l3.52-11.12c1.08-0.18,2.21-0.26,3.38-0.26    c1.08,0,2.15,0.09,3.21,0.26l-4.39,10.99l5.23,11.73c-1.14,0.18-2.23,0.26-3.25,0.26s-2.07-0.09-3.12-0.26L282.32,187.99z"/>
		<path class="st2" d="M61.73,223.87c1.05-0.18,2.09-0.26,3.12-0.26c1.03,0,2.07,0.09,3.12,0.26v12.04c0,1.2,0.09,2.19,0.29,2.97    c0.19,0.78,0.48,1.39,0.88,1.85s0.89,0.78,1.47,0.97s1.27,0.29,2.07,0.29c1.08,0,1.99-0.1,2.73-0.31v-17.8    c1.05-0.18,2.08-0.26,3.08-0.26c1.03,0,2.07,0.09,3.12,0.26v21.84c-0.94,0.32-2.17,0.64-3.71,0.95c-1.54,0.31-3.14,0.46-4.81,0.46    c-1.5,0-2.93-0.12-4.31-0.35c-1.38-0.23-2.59-0.73-3.63-1.49s-1.87-1.88-2.48-3.34c-0.62-1.46-0.92-3.41-0.92-5.84V223.87z"/>
		<path class="st2" d="M87.39,223.87c0.41-0.09,0.82-0.15,1.23-0.2s0.86-0.07,1.36-0.07c0.5,0,0.94,0.02,1.32,0.07    c0.38,0.04,0.78,0.11,1.19,0.2c0.09,0.15,0.17,0.36,0.24,0.64c0.07,0.28,0.14,0.57,0.2,0.88c0.06,0.31,0.11,0.61,0.15,0.9    s0.08,0.54,0.11,0.75c0.29-0.44,0.64-0.88,1.05-1.32s0.89-0.83,1.43-1.19c0.54-0.35,1.15-0.64,1.82-0.86s1.42-0.33,2.24-0.33    c2.58,0,4.52,0.7,5.82,2.11c1.3,1.41,1.96,3.62,1.96,6.64v14.5c-1.06,0.18-2.1,0.26-3.12,0.26s-2.07-0.09-3.12-0.26v-12.83    c0-1.58-0.24-2.8-0.73-3.65c-0.48-0.85-1.33-1.27-2.53-1.27c-0.5,0-1.01,0.07-1.54,0.22c-0.53,0.15-1,0.43-1.43,0.86    c-0.43,0.42-0.77,1.02-1.03,1.78c-0.26,0.76-0.4,1.76-0.4,2.99v11.91c-1.05,0.18-2.09,0.26-3.12,0.26c-1.03,0-2.07-0.09-3.12-0.26    V223.87z"/>
		<path class="st2" d="M126.6,214.46c0.53-0.09,1.05-0.15,1.56-0.18c0.51-0.03,1.02-0.04,1.52-0.04s1.01,0.02,1.54,0.04    c0.53,0.03,1.05,0.09,1.58,0.18v31.38c-1.38,0.41-2.78,0.72-4.2,0.95c-1.42,0.22-3.14,0.33-5.17,0.33c-1.55,0-3.04-0.21-4.46-0.64    c-1.42-0.42-2.67-1.1-3.76-2.02c-1.08-0.92-1.94-2.12-2.57-3.58c-0.63-1.46-0.95-3.25-0.95-5.36c0-1.67,0.27-3.25,0.81-4.72    c0.54-1.48,1.32-2.76,2.33-3.85s2.23-1.94,3.67-2.57c1.44-0.63,3.03-0.95,4.79-0.95c0.53,0,1.08,0.02,1.65,0.07    s1.12,0.14,1.65,0.29V214.46z M126.6,228.57c-0.59-0.15-1.06-0.24-1.43-0.29c-0.37-0.04-0.83-0.07-1.38-0.07    c-0.97,0-1.81,0.2-2.53,0.59c-0.72,0.4-1.31,0.92-1.78,1.58s-0.81,1.44-1.03,2.33c-0.22,0.89-0.33,1.82-0.33,2.79    c0,1.2,0.15,2.22,0.44,3.05s0.7,1.5,1.21,2c0.51,0.5,1.12,0.86,1.82,1.08s1.46,0.33,2.29,0.33c0.5,0,0.95-0.02,1.36-0.07    c0.41-0.04,0.86-0.14,1.36-0.29V228.57z"/>
		<path class="st2" d="M149.49,214.99c1.23-0.15,2.52-0.27,3.87-0.37c1.35-0.1,2.84-0.15,4.48-0.15c5.54,0,9.75,1.38,12.64,4.13    s4.33,6.89,4.33,12.39c0,5.54-1.47,9.61-4.39,12.22c-2.93,2.61-7.28,3.91-13.05,3.91c-1.49,0-2.87-0.05-4.13-0.15    c-1.26-0.1-2.51-0.23-3.74-0.37V214.99z M155.95,241.49c0.26,0.03,0.6,0.06,1.01,0.09c0.41,0.03,0.91,0.04,1.49,0.04    c1.35,0,2.6-0.15,3.76-0.46s2.16-0.87,3.01-1.69c0.85-0.82,1.52-1.92,2.02-3.3s0.75-3.15,0.75-5.32c0-2.11-0.25-3.87-0.75-5.27    s-1.17-2.52-2.02-3.34c-0.85-0.82-1.82-1.4-2.92-1.74s-2.26-0.51-3.49-0.51c-0.41,0-0.89,0.01-1.43,0.02    c-0.54,0.01-1.02,0.05-1.43,0.11V241.49z"/>
		<path class="st2" d="M184.7,237.14c0.12,1.76,0.73,3.03,1.85,3.82c1.11,0.79,2.58,1.19,4.4,1.19c1,0,2.01-0.1,3.05-0.29    s2.03-0.46,2.97-0.81c0.32,0.59,0.6,1.29,0.83,2.11s0.37,1.7,0.4,2.64c-2.29,0.88-4.86,1.32-7.73,1.32    c-2.11,0-3.92-0.29-5.43-0.88s-2.74-1.4-3.69-2.44c-0.95-1.04-1.66-2.28-2.11-3.71c-0.46-1.43-0.68-3-0.68-4.7    c0-1.67,0.23-3.24,0.7-4.7c0.47-1.46,1.17-2.74,2.09-3.82s2.07-1.94,3.43-2.57c1.36-0.63,2.95-0.95,4.77-0.95    c1.58,0,2.99,0.28,4.22,0.84s2.28,1.32,3.14,2.29c0.86,0.97,1.52,2.12,1.96,3.45s0.66,2.76,0.66,4.29c0,0.56-0.02,1.11-0.07,1.65    c-0.04,0.54-0.1,0.97-0.15,1.3H184.7z M193.62,232.79c-0.06-1.41-0.45-2.54-1.17-3.41s-1.72-1.3-3.01-1.3    c-1.46,0-2.58,0.41-3.34,1.23c-0.76,0.82-1.22,1.98-1.36,3.47H193.62z"/>
		<path class="st2" d="M203.77,223.87c1.05-0.18,2.09-0.26,3.12-0.26c1.03,0,2.07,0.09,3.12,0.26v12.04c0,1.2,0.09,2.19,0.29,2.97    c0.19,0.78,0.48,1.39,0.88,1.85s0.89,0.78,1.47,0.97s1.27,0.29,2.07,0.29c1.08,0,1.99-0.1,2.73-0.31v-17.8    c1.05-0.18,2.08-0.26,3.08-0.26c1.03,0,2.07,0.09,3.12,0.26v21.84c-0.94,0.32-2.17,0.64-3.71,0.95c-1.54,0.31-3.14,0.46-4.81,0.46    c-1.5,0-2.93-0.12-4.31-0.35c-1.38-0.23-2.59-0.73-3.63-1.49s-1.87-1.88-2.48-3.34c-0.62-1.46-0.92-3.41-0.92-5.84V223.87z"/>
		<path class="st2" d="M230.49,228.61h-2.86l-0.22-0.88l8.22-10.5h1.01v6.64h5.32c0.09,0.44,0.15,0.83,0.18,1.19    c0.03,0.35,0.04,0.72,0.04,1.1c0,0.41-0.02,0.81-0.04,1.19c-0.03,0.38-0.09,0.81-0.18,1.27h-5.32v8.92c0,0.91,0.07,1.64,0.22,2.2    c0.15,0.56,0.36,1,0.64,1.32c0.28,0.32,0.62,0.54,1.03,0.66c0.41,0.12,0.89,0.18,1.45,0.18c0.44,0,0.87-0.04,1.3-0.11    s0.8-0.14,1.12-0.2c0.2,0.56,0.35,1.14,0.44,1.74c0.09,0.6,0.13,1.14,0.13,1.6c0,0.32-0.01,0.59-0.02,0.81s-0.04,0.43-0.07,0.64    c-1.35,0.32-2.74,0.48-4.18,0.48c-2.67,0-4.7-0.62-6.11-1.87c-1.41-1.25-2.11-3.27-2.11-6.09V228.61z"/>
		<path class="st2" d="M251.74,236.7c-1.64-0.47-2.92-1.17-3.85-2.09s-1.38-2.31-1.38-4.15c0-2.23,0.8-3.97,2.4-5.23    c1.6-1.26,3.77-1.89,6.53-1.89c1.14,0,2.27,0.1,3.38,0.31c1.11,0.21,2.24,0.51,3.38,0.92c-0.06,0.76-0.21,1.55-0.44,2.37    c-0.24,0.82-0.51,1.54-0.83,2.15c-0.7-0.29-1.48-0.55-2.33-0.77c-0.85-0.22-1.74-0.33-2.68-0.33c-1,0-1.77,0.15-2.33,0.46    c-0.56,0.31-0.83,0.8-0.83,1.47c0,0.64,0.2,1.1,0.59,1.36c0.4,0.26,0.96,0.51,1.69,0.75l2.5,0.75c0.82,0.24,1.56,0.52,2.22,0.86    c0.66,0.34,1.22,0.75,1.69,1.25c0.47,0.5,0.83,1.11,1.1,1.85s0.4,1.63,0.4,2.68c0,1.08-0.23,2.1-0.68,3.03s-1.11,1.75-1.98,2.44    c-0.86,0.69-1.91,1.23-3.14,1.63c-1.23,0.4-2.62,0.59-4.17,0.59c-0.7,0-1.35-0.02-1.93-0.07c-0.59-0.04-1.15-0.12-1.69-0.22    c-0.54-0.1-1.08-0.23-1.6-0.37s-1.1-0.34-1.71-0.57c0.06-0.79,0.2-1.59,0.42-2.4c0.22-0.81,0.5-1.59,0.86-2.35    c0.97,0.38,1.88,0.67,2.75,0.86s1.76,0.29,2.7,0.29c0.41,0,0.86-0.04,1.34-0.11s0.93-0.21,1.34-0.4s0.75-0.44,1.03-0.75    c0.28-0.31,0.42-0.71,0.42-1.21c0-0.7-0.21-1.21-0.64-1.52c-0.42-0.31-1.02-0.58-1.78-0.81L251.74,236.7z"/>
		<path class="st2" d="M282.88,241.23c0.35,0.59,0.64,1.27,0.88,2.04c0.23,0.78,0.35,1.69,0.35,2.75c-1.17,0.47-2.27,0.77-3.3,0.9    c-1.03,0.13-2.1,0.2-3.21,0.2c-1.9,0-3.56-0.3-4.97-0.9c-1.41-0.6-2.57-1.43-3.49-2.48s-1.62-2.31-2.09-3.76s-0.7-3.03-0.7-4.72    c0-1.67,0.23-3.22,0.68-4.66c0.45-1.43,1.14-2.7,2.07-3.78s2.07-1.93,3.45-2.55c1.38-0.62,2.97-0.92,4.79-0.92    c0.64,0,1.24,0.02,1.78,0.04c0.54,0.03,1.06,0.09,1.56,0.18c0.5,0.09,1,0.21,1.49,0.35c0.5,0.15,1.05,0.34,1.67,0.57    c0,0.67-0.09,1.43-0.26,2.26s-0.45,1.63-0.83,2.4c-0.88-0.29-1.65-0.49-2.31-0.59s-1.41-0.15-2.26-0.15    c-1.82,0-3.19,0.59-4.11,1.78c-0.92,1.19-1.38,2.88-1.38,5.08c0,2.37,0.5,4.1,1.49,5.19c1,1.08,2.34,1.63,4.04,1.63    c0.44,0,0.84-0.01,1.21-0.02s0.73-0.05,1.08-0.11c0.35-0.06,0.71-0.15,1.08-0.26C281.94,241.55,282.38,241.4,282.88,241.23z"/>
		<path class="st2" d="M288.34,214.46c0.5-0.09,1.01-0.15,1.54-0.18c0.53-0.03,1.04-0.04,1.54-0.04c0.5,0,1.01,0.02,1.54,0.04    c0.53,0.03,1.05,0.09,1.58,0.18v12.09c0.21-0.26,0.48-0.58,0.81-0.95c0.34-0.37,0.75-0.72,1.25-1.05c0.5-0.34,1.1-0.62,1.8-0.86    c0.7-0.23,1.51-0.35,2.42-0.35c2.52,0,4.43,0.7,5.74,2.11c1.3,1.41,1.96,3.62,1.96,6.64v14.55c-0.53,0.09-1.06,0.15-1.58,0.18    s-1.04,0.04-1.54,0.04s-1.01-0.01-1.54-0.04s-1.05-0.09-1.58-0.18v-12.88c0-1.58-0.25-2.8-0.75-3.65    c-0.5-0.85-1.35-1.27-2.55-1.27c-0.5,0-1.01,0.07-1.54,0.22c-0.53,0.15-1,0.43-1.43,0.86c-0.43,0.42-0.78,1.02-1.05,1.78    c-0.28,0.76-0.42,1.76-0.42,2.99v11.95c-0.53,0.09-1.05,0.15-1.58,0.18s-1.04,0.04-1.54,0.04c-0.5,0-1-0.01-1.52-0.04    s-1.03-0.09-1.56-0.18V214.46z"/>
		<path class="st2" d="M314.05,214.46c1.05-0.18,2.09-0.26,3.12-0.26c1,0,2.02,0.09,3.08,0.26v23.07c0,0.91,0.05,1.64,0.15,2.2    c0.1,0.56,0.26,0.99,0.48,1.3s0.5,0.52,0.86,0.64c0.35,0.12,0.79,0.18,1.32,0.18c0.23,0,0.49-0.01,0.77-0.04    c0.28-0.03,0.55-0.07,0.81-0.13c0.32,1.2,0.48,2.37,0.48,3.52c0,0.23,0,0.45,0,0.64c0,0.19-0.03,0.4-0.09,0.64    c-0.47,0.15-1.03,0.25-1.69,0.31s-1.27,0.09-1.82,0.09c-2.26,0-4.07-0.62-5.43-1.87c-1.36-1.25-2.04-3.27-2.04-6.09V214.46z"/>
		<path class="st2" d="M340.44,231.65c0-0.7-0.12-1.27-0.35-1.71c-0.24-0.44-0.56-0.78-0.97-1.03s-0.92-0.42-1.52-0.51    c-0.6-0.09-1.27-0.13-2-0.13c-1.58,0-3.27,0.31-5.05,0.92c-0.41-0.76-0.72-1.48-0.92-2.15s-0.31-1.48-0.31-2.42    c1.29-0.44,2.58-0.76,3.87-0.97c1.29-0.2,2.49-0.31,3.6-0.31c3.05,0,5.43,0.73,7.14,2.2c1.71,1.46,2.57,3.81,2.57,7.03v13.19    c-1.03,0.32-2.27,0.63-3.74,0.92c-1.47,0.29-3.12,0.44-4.97,0.44c-1.49,0-2.86-0.13-4.11-0.4s-2.31-0.7-3.21-1.32    c-0.89-0.62-1.58-1.41-2.07-2.37s-0.73-2.15-0.73-3.56s0.3-2.58,0.9-3.54c0.6-0.95,1.38-1.71,2.33-2.29s2.01-0.98,3.19-1.23    s2.34-0.37,3.52-0.37c0.85,0,1.79,0.04,2.81,0.13V231.65z M340.44,236.17c-0.35-0.06-0.73-0.11-1.14-0.15s-0.78-0.07-1.1-0.07    c-1.44,0-2.57,0.26-3.41,0.77c-0.83,0.51-1.25,1.34-1.25,2.48c0,0.76,0.16,1.35,0.48,1.76c0.32,0.41,0.71,0.71,1.17,0.9    c0.45,0.19,0.94,0.31,1.45,0.35c0.51,0.04,0.96,0.07,1.34,0.07c0.44,0,0.88-0.04,1.32-0.11s0.82-0.14,1.14-0.2V236.17z"/>
		<path class="st2" d="M352.11,223.87c0.41-0.09,0.82-0.15,1.23-0.2s0.86-0.07,1.36-0.07c0.5,0,0.94,0.02,1.32,0.07    c0.38,0.04,0.78,0.11,1.19,0.2c0.09,0.15,0.17,0.36,0.24,0.64c0.07,0.28,0.14,0.57,0.2,0.88c0.06,0.31,0.11,0.61,0.15,0.9    s0.08,0.54,0.11,0.75c0.29-0.44,0.64-0.88,1.05-1.32s0.89-0.83,1.43-1.19c0.54-0.35,1.15-0.64,1.82-0.86s1.42-0.33,2.24-0.33    c2.58,0,4.52,0.7,5.82,2.11c1.3,1.41,1.96,3.62,1.96,6.64v14.5c-1.06,0.18-2.1,0.26-3.12,0.26s-2.07-0.09-3.12-0.26v-12.83    c0-1.58-0.24-2.8-0.73-3.65c-0.48-0.85-1.33-1.27-2.53-1.27c-0.5,0-1.01,0.07-1.54,0.22c-0.53,0.15-1,0.43-1.43,0.86    c-0.43,0.42-0.77,1.02-1.03,1.78c-0.26,0.76-0.4,1.76-0.4,2.99v11.91c-1.05,0.18-2.09,0.26-3.12,0.26c-1.03,0-2.07-0.09-3.12-0.26    V223.87z"/>
		<path class="st2" d="M391.56,214.46c0.53-0.09,1.05-0.15,1.56-0.18c0.51-0.03,1.02-0.04,1.52-0.04s1.01,0.02,1.54,0.04    c0.53,0.03,1.05,0.09,1.58,0.18v31.38c-1.38,0.41-2.78,0.72-4.2,0.95c-1.42,0.22-3.14,0.33-5.17,0.33c-1.55,0-3.04-0.21-4.46-0.64    c-1.42-0.42-2.67-1.1-3.76-2.02c-1.08-0.92-1.94-2.12-2.57-3.58c-0.63-1.46-0.95-3.25-0.95-5.36c0-1.67,0.27-3.25,0.81-4.72    c0.54-1.48,1.32-2.76,2.33-3.85s2.23-1.94,3.67-2.57c1.44-0.63,3.03-0.95,4.79-0.95c0.53,0,1.08,0.02,1.65,0.07    s1.12,0.14,1.65,0.29V214.46z M391.56,228.57c-0.59-0.15-1.06-0.24-1.43-0.29c-0.37-0.04-0.83-0.07-1.38-0.07    c-0.97,0-1.81,0.2-2.53,0.59c-0.72,0.4-1.31,0.92-1.78,1.58s-0.81,1.44-1.03,2.33c-0.22,0.89-0.33,1.82-0.33,2.79    c0,1.2,0.15,2.22,0.44,3.05s0.7,1.5,1.21,2c0.51,0.5,1.12,0.86,1.82,1.08s1.46,0.33,2.29,0.33c0.5,0,0.95-0.02,1.36-0.07    c0.41-0.04,0.86-0.14,1.36-0.29V228.57z"/>
	</g>
</g>
</svg>