<?xml version="1.0" encoding="utf-8"?>
<!-- Generator: Adobe Illustrator 25.0.1, SVG Export Plug-In . SVG Version: 6.00 Build 0)  -->
<svg version="1.1" xmlns="http://www.w3.org/2000/svg" xmlns:xlink="http://www.w3.org/1999/xlink" x="0px" y="0px"
	 viewBox="0 0 1760.85 721.92" style="enable-background:new 0 0 1760.85 721.92;" xml:space="preserve">
<style type="text/css">
	.st0{fill:#F9F8B0;}
	.st1{fill:#FFD200;}
	.st2{fill:#FBFBD0;}
	.st3{fill:#FAF9C0;}
	.st4{clip-path:url(#SVGID_2_);}
</style>
<g id="Layout">
</g>
<g id="Pfade">
	<g>
		<defs>
			<rect id="SVGID_1_" width="1760.85" height="721.92"/>
		</defs>
		<clipPath id="SVGID_2_">
			<use xlink:href="#SVGID_1_"  style="overflow:visible;"/>
		</clipPath>
		<g class="st4">
			<path class="st2" d="M6498.88-692.19V54.95c-220.59-1.24-470.54,41.07-722.28,171.8c-642.58,333.69-1317.01,57.91-1448.15,0.36
				l-2.06-0.36c0,0-728.81-386.61-1473.3,0c-715.39,371.51-1338.39,59.29-1473.3,0c-26.35-11.58-42.4-18.63-51.17-22.5
				c16.26,7.13,49.59,21.77,51.19,22.47c-7.53-3.98-732.63-384.57-1473.24,0.03c-154.87,59.28-348.55,78.18-547.73,64.33v-983.27
				H6498.88z"/>
			<path class="st3" d="M6498.88,54.95v506.18c-25.95,11.67-51.96,24.24-77.98,37.75c-642.58,333.69-1317.01,57.9-1448.14,0.35
				l-2.07-0.35c0,0-728.81-386.62-1473.3,0c-715.39,371.5-1338.39,59.29-1473.3,0c-26.35-11.58-42.4-18.63-51.17-22.5
				c16.26,7.13,49.59,21.77,51.19,22.47c-7.53-3.98-732.63-384.58-1473.24,0.03c-328.65,125.8-832.08,69.78-1192.03-95.34V291.08
				c199.18,13.85,392.86-5.05,547.73-64.33c740.61-384.6,1465.71-4.01,1473.24-0.03c-1.6-0.7-34.93-15.34-51.19-22.47
				c8.77,3.87,24.82,10.92,51.17,22.5c134.91,59.29,757.91,371.51,1473.3,0c744.49-386.61,1473.3,0,1473.3,0l2.06,0.36
				c131.14,57.55,805.57,333.33,1448.15-0.36C6028.34,96.02,6278.29,53.71,6498.88,54.95z"/>
			<path class="st0" d="M6498.88,561.13v876.59H-641.16V503.54c359.95,165.12,863.38,221.14,1192.03,95.34
				c740.61-384.61,1465.71-4.01,1473.24-0.03c-1.76-0.77-42.17-18.52-55.63-24.42c7.17,3.16,23.96,10.54,55.61,24.45
				c134.91,59.29,757.91,371.5,1473.3,0c744.49-386.62,1473.3,0,1473.3,0l2.07,0.35c131.13,57.55,805.56,333.34,1448.14-0.35
				C6446.92,585.37,6472.93,572.8,6498.88,561.13z"/>
		</g>
	</g>
</g>
</svg>
