<?xml version="1.0" encoding="utf-8"?>
<!-- Generator: Adobe Illustrator 25.0.1, SVG Export Plug-In . SVG Version: 6.00 Build 0)  -->
<svg version="1.1" xmlns="http://www.w3.org/2000/svg" xmlns:xlink="http://www.w3.org/1999/xlink" x="0px" y="0px"
	 viewBox="0 0 805.19 817.57" style="enable-background:new 0 0 805.19 817.57;" xml:space="preserve">
<style type="text/css">
	.st0{fill:#F9F8B0;}
	.st1{fill:#FFD200;}
</style>
<g id="Layout">
	<path class="st1" d="M210.93,518.58c-2.64,0-4.78-2.14-4.78-4.78v-19.04c0-2.64,2.14-4.78,4.78-4.78s4.78,2.14,4.78,4.78v19.04
		C215.72,516.44,213.58,518.58,210.93,518.58z"/>
	<path class="st1" d="M324.91,716.09c-2.64,0-4.78-2.14-4.78-4.78v-44.28c0-2.64,2.14-4.78,4.78-4.78s4.78,2.14,4.78,4.78v44.28
		C329.69,713.95,327.55,716.09,324.91,716.09z"/>
	<path class="st1" d="M609.82,791.73c-13.57,0-25.94-9.23-29.33-22.98c-0.62-2.51,0.92-5.05,3.43-5.67
		c2.52-0.62,5.05,0.92,5.67,3.43c2.75,11.16,14.07,18,25.22,15.25c11.16-2.75,18-14.06,15.25-25.22c-0.62-2.51,0.92-5.05,3.43-5.67
		c2.51-0.62,5.05,0.92,5.67,3.43c3.99,16.17-5.93,32.57-22.1,36.56C614.63,791.45,612.21,791.73,609.82,791.73z"/>
	<path class="st1" d="M584.52,757.61c-0.99,0-1.99-0.05-2.99-0.15c-8.03-0.78-15.27-4.65-20.4-10.88
		c-10.58-12.87-8.71-31.94,4.15-42.52c2-1.64,4.95-1.35,6.59,0.64c1.64,2,1.35,4.95-0.64,6.59c-8.88,7.3-10.16,20.45-2.86,29.33
		c3.53,4.3,8.53,6.96,14.07,7.51c5.55,0.54,10.96-1.11,15.26-4.64c2-1.64,4.95-1.35,6.59,0.64c1.64,2,1.35,4.95-0.64,6.59
		C598.19,755.22,591.49,757.61,584.52,757.61z"/>
	<path class="st1" d="M625.71,744.59c-5.44,0-10.8-1.48-15.57-4.37c-6.91-4.18-11.77-10.79-13.7-18.62
		c-0.62-2.51,0.92-5.05,3.43-5.67c2.51-0.62,5.05,0.92,5.67,3.43c1.33,5.4,4.69,9.97,9.45,12.85c4.76,2.88,10.36,3.73,15.77,2.4
		c5.41-1.33,9.97-4.69,12.85-9.45c1.34-2.21,4.22-2.92,6.43-1.58c2.21,1.34,2.92,4.22,1.58,6.43c-4.17,6.9-10.79,11.77-18.62,13.7
		C630.58,744.29,628.14,744.59,625.71,744.59z"/>
	<path class="st1" d="M602.17,711.83c-4.64,0-9.25-1.08-13.51-3.22c-14.89-7.47-20.93-25.65-13.46-40.54
		c1.16-2.31,3.97-3.25,6.29-2.09c2.31,1.16,3.25,3.97,2.09,6.29c-5.15,10.27-0.99,22.82,9.29,27.97c4.98,2.49,10.62,2.9,15.91,1.15
		c5.28-1.75,9.57-5.46,12.06-10.44c1.16-2.31,3.98-3.25,6.29-2.09c2.31,1.16,3.25,3.97,2.09,6.29c-3.62,7.21-9.83,12.59-17.48,15.13
		C608.59,711.31,605.37,711.83,602.17,711.83z"/>
	<path class="st1" d="M695.66,669.9c-1.46,0-2.9-0.68-3.82-1.96c-1.5-2.11-1.01-5.03,1.09-6.53c4.53-3.23,7.53-8.04,8.45-13.53
		c0.92-5.49-0.36-11.01-3.59-15.54c-3.23-4.53-8.04-7.53-13.53-8.45c-5.49-0.92-11.01,0.36-15.54,3.59c-2.1,1.5-5.03,1.02-6.53-1.09
		c-1.5-2.11-1.02-5.03,1.09-6.53c6.57-4.69,14.56-6.54,22.53-5.21c7.96,1.33,14.92,5.68,19.61,12.24
		c4.69,6.57,6.54,14.57,5.21,22.53c-1.33,7.96-5.68,14.92-12.24,19.61C697.56,669.62,696.61,669.9,695.66,669.9z"/>
	<path class="st1" d="M676.36,728.49c-0.36,0-0.72-0.01-1.08-0.02c-16.65-0.59-29.71-14.61-29.12-31.26
		c0.09-2.59,2.29-4.63,4.85-4.52c2.59,0.09,4.61,2.26,4.52,4.85c-0.2,5.56,1.78,10.87,5.58,14.94c3.79,4.07,8.95,6.42,14.51,6.62
		c0.25,0.01,0.5,0.01,0.75,0.01c11.15,0,20.42-8.87,20.82-20.1c0.41-11.48-8.6-21.16-20.09-21.56c-2.59-0.09-4.61-2.26-4.52-4.85
		c0.09-2.59,2.26-4.59,4.85-4.52c16.65,0.59,29.71,14.61,29.12,31.26C705.96,715.63,692.53,728.49,676.36,728.49z"/>
	<path class="st1" d="M636.61,684.81c-5.44,0-10.8-1.48-15.57-4.37c-6.91-4.18-11.77-10.79-13.7-18.62
		c-1.93-7.83-0.69-15.95,3.48-22.86c4.17-6.91,10.79-11.77,18.62-13.7c7.83-1.93,15.95-0.7,22.86,3.48
		c6.91,4.17,11.77,10.79,13.7,18.62c3.98,16.17-5.93,32.57-22.1,36.56C641.48,684.51,639.04,684.81,636.61,684.81z M636.7,633.74
		c-1.67,0-3.36,0.2-5.02,0.61c-5.4,1.33-9.97,4.69-12.85,9.45c-2.88,4.76-3.73,10.36-2.4,15.77c1.33,5.4,4.69,9.97,9.45,12.85
		c4.76,2.88,10.36,3.73,15.77,2.4c11.16-2.75,18-14.06,15.25-25.22c-1.33-5.41-4.69-9.97-9.45-12.85
		C644.15,634.77,640.46,633.74,636.7,633.74z"/>
	<path class="st1" d="M613.11,624.83c-2.19-8.88-8.12-15.86-15.7-19.7c-0.76,1.42-1.55,2.83-2.38,4.22c-0.79,1.31-1.6,2.6-2.45,3.87
		c5.51,2.58,9.86,7.51,11.43,13.86c0.62,2.51,3.16,4.04,5.67,3.43C612.19,629.88,613.73,627.34,613.11,624.83z"/>
	<path class="st1" d="M403.78,602.46c-0.5,0-1-0.08-1.5-0.24c-8.53-2.75-16.75-6.58-24.42-11.36c-2.26-1.41-2.98-4.36-1.61-6.65
		c1.17-1.96,2.44-3.91,3.76-5.8c4.27-6.08,9.25-11.63,14.8-16.49c2.03-1.78,5.11-1.57,6.89,0.46c1.78,2.03,1.57,5.11-0.46,6.89
		c-4.96,4.35-9.42,9.31-13.24,14.75c-0.24,0.35-0.49,0.7-0.73,1.05c5.75,3.21,11.79,5.84,18.01,7.85c2.57,0.83,3.97,3.58,3.14,6.15
		C407.76,601.15,405.84,602.46,403.78,602.46z"/>
	<path class="st1" d="M420.14,563.78c-0.75,0-1.51-0.17-2.22-0.54c-3.54-1.81-7.01-3.88-10.3-6.15c-1.9-1.31-3.77-2.7-5.55-4.12
		c-2.08-1.67-2.43-4.69-0.81-6.79c6.57-8.51,14.29-15.98,22.94-22.2c2.19-1.57,5.24-1.08,6.81,1.12c1.57,2.19,1.07,5.24-1.12,6.81
		c-6.56,4.71-12.53,10.22-17.8,16.4c0.35,0.25,0.7,0.49,1.05,0.73c2.95,2.03,6.05,3.88,9.22,5.5c2.4,1.23,3.35,4.17,2.12,6.57
		C423.63,562.81,421.92,563.78,420.14,563.78z"/>
	<path class="st1" d="M444.07,626.21c-0.37,0-0.74-0.04-1.12-0.13c-9.56-2.24-18.82-5.77-27.53-10.5c-2.34-1.27-3.23-4.18-2-6.54
		c1.06-2.04,2.2-4.06,3.41-6.01c2.58-4.19,5.51-8.2,8.71-11.91c1.76-2.04,4.84-2.27,6.89-0.51c2.04,1.76,2.27,4.84,0.51,6.89
		c-2.86,3.32-5.48,6.91-7.8,10.66c-0.22,0.36-0.45,0.73-0.66,1.09c6.64,3.2,13.58,5.65,20.7,7.32c2.63,0.61,4.26,3.24,3.64,5.87
		C448.29,624.69,446.28,626.21,444.07,626.21z"/>
	<path class="st1" d="M475.37,544.34c-0.54,0-1.09-0.09-1.63-0.28c-14.88-5.29-28.25-14.35-38.65-26.2
		c-1.52-1.73-2.99-3.53-4.36-5.36c-1.6-2.12-1.21-5.14,0.88-6.78c14.26-11.19,31.14-18.74,48.81-21.83
		c2.65-0.47,5.19,1.31,5.65,3.97c0.46,2.66-1.31,5.19-3.97,5.65c-14.49,2.53-28.39,8.36-40.5,16.94c0.28,0.33,0.55,0.65,0.83,0.97
		c9.31,10.6,21.27,18.71,34.58,23.44c2.54,0.9,3.87,3.7,2.97,6.24C479.26,543.1,477.38,544.34,475.37,544.34z"/>
	<path class="st1" d="M487.79,643.82c-9.72,0-19.46-1.29-28.98-3.88c-2.57-0.7-4.1-3.32-3.45-5.9c0.55-2.21,1.21-4.44,1.93-6.63
		c5.37-16.18,15.11-30.57,28.16-41.62c2.06-1.74,5.14-1.49,6.88,0.57c1.74,2.06,1.49,5.14-0.57,6.88
		c-11.68,9.89-20.39,22.77-25.2,37.24c-0.13,0.4-0.27,0.81-0.39,1.22c16.36,3.61,33.28,3.08,49.25-1.56
		c2.59-0.76,5.3,0.74,6.05,3.32c0.75,2.59-0.74,5.3-3.32,6.05C508.26,642.38,498.04,643.82,487.79,643.82z"/>
	<path class="st1" d="M536.27,644.32c-2.06,0-3.97-1.31-4.64-3.37c-0.97-2.97-1.78-6.04-2.4-9.12c-3.18-15.67-1.61-31.95,4.38-46.65
		c-19.92-0.01-39.36-5.49-56.69-16.03c-2.27-1.38-3.02-4.33-1.68-6.63c1.15-1.98,2.4-3.94,3.7-5.84
		c9.87-14.38,23.33-25.48,39.26-32.46c-11.18-11.19-18.93-25.54-22.1-41.15c-0.39-1.92-0.71-3.86-0.96-5.78
		c-0.34-2.65,1.5-5.08,4.15-5.46c22-3.17,44.24,2.03,62.61,14.65c18.41,12.64,31.27,31.59,36.21,53.36v0l0.2,0.87
		c0.09,0.39,0.18,0.77,0.26,1.17c4.4,21.71,0.55,44.12-10.84,63.11c-11.31,18.86-29.08,32.76-50.04,39.14
		C537.22,644.25,536.75,644.32,536.27,644.32z M541.42,575.13c1.64,0,3.18,0.83,4.09,2.22c0.97,1.49,1.05,3.39,0.22,4.96
		c-7.74,14.52-10.2,31.42-6.92,47.59c0.22,1.1,0.47,2.19,0.75,3.28c16.59-6.22,30.61-17.88,39.82-33.23
		c10.13-16.89,13.55-36.83,9.64-56.14c-0.06-0.29-0.13-0.57-0.19-0.86l-0.22-0.95c0,0,0,0,0,0c-4.4-19.37-15.84-36.22-32.22-47.47
		c-14.97-10.27-32.81-15.02-50.74-13.59c0.01,0.06,0.03,0.13,0.04,0.19c3.26,16.08,12.05,30.64,24.75,40.99
		c1.38,1.12,2.03,2.9,1.72,4.65c-0.31,1.75-1.55,3.18-3.23,3.76c-17.23,5.88-31.72,16.83-41.92,31.68
		c-0.24,0.35-0.48,0.71-0.72,1.06c16.88,9.19,35.71,13.28,54.79,11.87C541.18,575.13,541.3,575.13,541.42,575.13z"/>
	<path class="st1" d="M498.48,339.15c-0.72,0-1.45-0.17-2.13-0.54L177.05,165.1c-2.17-1.18-2.97-3.89-1.79-6.06
		c1.18-2.17,3.89-2.97,6.06-1.79l319.3,173.52c2.17,1.18,2.97,3.89,1.79,6.06C501.59,338.31,500.06,339.15,498.48,339.15z"/>
	<path class="st1" d="M522.13,313.07c-1.45,0-2.88-0.71-3.73-2.01L365.18,78.35c-1.36-2.06-0.79-4.83,1.27-6.19
		c2.06-1.36,4.83-0.79,6.19,1.27l153.21,232.7c1.36,2.06,0.79,4.83-1.27,6.19C523.82,312.83,522.97,313.07,522.13,313.07z"/>
	<path class="st1" d="M560.35,301.56c-2.42,0-4.41-1.93-4.46-4.36l-4.21-180.83c-0.06-2.47,1.89-4.51,4.36-4.57
		c2.5-0.08,4.51,1.9,4.57,4.36l4.21,180.83c0.06,2.47-1.89,4.51-4.36,4.57C560.43,301.56,560.39,301.56,560.35,301.56z"/>
	<path class="st1" d="M595.03,310.55c-0.7,0-1.4-0.16-2.06-0.51c-2.19-1.14-3.03-3.84-1.89-6.03l58.91-112.75
		c1.14-2.19,3.84-3.03,6.03-1.89c2.19,1.14,3.03,3.84,1.89,6.03l-58.91,112.75C598.19,309.67,596.64,310.55,595.03,310.55z"/>
	<path class="st1" d="M775.96,349.25c-6.74-47.74-22.82-94.13-47.04-135.75c-24.18-41.66-56.41-78.56-94.33-108.15
		c-37.9-29.62-81.51-51.88-127.73-65.06c-46.21-13.22-94.9-17.37-142.63-12.46c-47.74,4.91-94.49,19.12-136.81,41.63
		c-42.35,22.46-80.28,53.13-111.14,89.73c-30.89,36.57-54.7,79.09-69.6,124.55c-0.79,2.42,0.51,5.03,2.93,5.84
		c2.43,0.81,5.06-0.5,5.87-2.93c14.8-44.23,38.25-85.49,68.53-120.9c30.25-35.43,67.3-65,108.54-86.55
		c41.22-21.59,86.6-35.07,132.86-39.54c46.26-4.47,93.36-0.15,137.9,12.89c44.56,13,86.5,34.74,122.85,63.52
		c36.38,28.74,67.19,64.48,90.19,104.67c23.04,40.17,38.19,84.79,44.38,130.62c3.11,22.91,4.02,46.12,2.79,69.21
		c-1.27,23.08-4.74,46.03-10.37,68.42c-10.83,43.19-29.77,83.98-55.53,120.24c5.18,2.47,9.76,6.07,13.43,10.63
		c27.02-38.34,46.76-81.44,57.87-126.97c5.74-23.44,9.22-47.43,10.39-71.52C780.45,397.3,779.35,373.12,775.96,349.25z"/>
	<path class="st1" d="M706.83,433.42l-0.52-2.31l-0.26-1.15l-0.26-1.03l-1.05-4.02l-1.12-4l-1.94-6.3c-0.6-2.09-2.93-8.02-3.9-10.47
		l0.02-0.03l-0.23-0.52c-0.07-0.17-0.16-0.36-0.23-0.54c-0.33-0.86-0.79-1.91-1.32-3.07l-31.63-73.26
		c-2.33-5.34-7.37-8.94-13.2-9.35c-0.38-0.03-0.75-0.03-1.13-0.03c-5.36,0-10.46,2.83-13.29,7.39l-31.79,51.4l-0.52,0.83l-0.76-0.62
		l-34.89-28.18c-2.78-2.24-6.25-3.47-9.82-3.47c-0.92,0-1.84,0.09-2.74,0.24c-4.46,0.8-8.35,3.49-10.65,7.36
		c-0.35,0.59-8.75,14.42-22.3,28.35c-11.76,12.09-29.71,26.5-48.46,26.5c-12.15,0-30.19-15.2-49.3-31.29
		c-38.23-32.2-90.59-76.3-172.81-76.3c-66.57,0-135.8,35.7-160.05,49.48c-0.4,0.16-0.79,0.33-1.18,0.53l-0.1,0.05
		c-12.22,6.94-22.76,13.33-32.65,22.63c-4.95,4.63-9.48,9.81-13.56,15.35c-4.02,5.58-7.56,11.55-10.37,17.83
		c-5.69,12.55-8.56,26.07-9.2,39.23c-0.67,13.19,0.71,26.07,3.22,38.41c2.51,12.36,6.18,24.22,10.34,35.67
		c1.04,2.86,2.11,5.7,3.2,8.51l3.31,8.4c2.15,5.69,4.35,11.35,6.79,16.93c4.86,11.15,10.27,22.05,16.15,32.69
		c5.92,10.61,12.32,20.96,19.21,30.97c27.55,40.04,62.79,74.71,103.23,101.57c40.41,26.9,86.03,45.92,133.56,55.59
		c47.53,9.71,96.81,10.2,144.49,1.6c28.73-5.2,56.83-13.81,83.56-25.49c-3.65-5.24-5.83-11.13-6.59-17.14
		c-25.71,11.11-52.7,19.24-80.28,24.06c-32.59,5.67-65.96,6.85-98.86,3.56V648.65c0-1.32-0.55-2.59-1.51-3.49l-63.64-59.61
		c-1.8-1.68-4.58-1.73-6.43-0.1L246,628.92V470.23c0-1.56-0.76-3.02-2.03-3.91l-28.35-19.95l-0.22-31.73
		c-0.01-1.55-0.77-3-2.04-3.89l-14.68-10.25v-16.61c0-2.64-2.14-4.78-4.78-4.78s-4.78,2.14-4.78,4.78v16.58l-12.38,8.81
		c-2.15,1.53-2.66,4.52-1.12,6.67c0.93,1.31,2.41,2.01,3.9,2.01c0.96,0,1.93-0.29,2.77-0.89l11.6-8.25l11.98,8.36l0.22,31.71
		c0.01,1.54,0.77,2.99,2.03,3.88l28.33,19.94v166.8c0,1.88,1.1,3.58,2.81,4.36c1.71,0.77,3.72,0.47,5.13-0.77l54.05-47.6
		l58.95,55.22v108.15c-9.64-1.23-19.24-2.82-28.74-4.82c-44.99-9.45-88.05-27.72-126.12-53.4c-1.3-0.87-2.57-1.77-3.85-2.66V580.7
		c0-1.32-0.55-2.59-1.51-3.49l-63.64-59.61c-1.78-1.67-4.54-1.73-6.39-0.14l-30.08,25.85c-2,1.72-2.23,4.74-0.51,6.75
		c1.72,2,4.74,2.23,6.75,0.51l26.83-23.05l58.99,55.26v108.38c-32.47-24.09-60.86-53.65-83.54-87.07
		c-6.43-9.49-12.41-19.29-17.94-29.33c-5.48-10.07-10.51-20.37-15.03-30.9c-1.08-2.65-2.25-5.27-3.31-7.93l-1.63-3.98
		c-0.52-1.34-1.03-2.67-1.51-4.02c-0.98-2.66-1.9-5.48-2.81-8.22c-0.91-2.75-1.78-5.49-2.62-8.22c-3.35-10.93-6.09-21.86-7.73-32.76
		c-1.64-10.89-2.18-21.74-1.09-32.12c1.09-10.37,3.85-20.21,8.42-28.96c2.26-4.39,5.01-8.48,8.11-12.32
		c3.15-3.8,6.64-7.35,10.52-10.57c6.21-5.19,13.17-9.14,20.05-13.1c0.15-0.07,0.3-0.14,0.45-0.22c0.02-0.02,0.05-0.03,0.07-0.03
		c0.5-0.26,0.97-0.56,1.44-0.87c0.32-0.19,0.68-0.4,1.06-0.63c0.65-0.38,1.3-0.76,1.95-1.14c0.05-0.03,0.1-0.06,0.16-0.09
		c0.54-0.31,2.73-1.56,4.01-2.29c23.42-13.17,86.95-45.63,144.56-45.63c70.83,0,116.22,38.23,152.7,68.96
		c24.6,20.74,45.86,38.62,69.41,38.62c39.25,0,71.3-34.25,86.91-54.66l0.54-0.71l0.69,0.56l35.66,28.79
		c2.76,2.24,6.25,3.45,9.82,3.45c0.87,0,1.75-0.07,2.62-0.23c4.41-0.75,8.29-3.37,10.65-7.18l25.06-40.48l0.87-1.41l0.66,1.53
		l20.42,47.06c0.05,0.1,0.12,0.21,0.16,0.31c0.1,0.24,0.21,0.47,0.33,0.7c1.22,3.37,2.44,6.74,3.58,10.12l1.28,3.62l1.2,3.62
		l1.26,3.61l0.3,0.88l0.24,0.77l0.49,1.55c2.51,8.25,3.61,16.68,2.51,25.18c-1.07,8.46-4.23,17.09-9.65,24.79
		c-5.34,7.73-12.66,14.57-21.12,19.87c-4.24,2.64-8.75,4.94-13.46,6.83c-1.19,0.45-2.34,0.95-3.57,1.37
		c-1.23,0.42-2.45,0.86-3.69,1.26c-2.48,0.79-4.98,1.55-7.5,2.22c-5.05,1.37-10.18,2.46-15.36,3.36c-1,0.17-2,0.33-2.99,0.48
		c0.99,2.68,1.88,5.4,2.64,8.18c5.91-1.16,11.8-2.29,17.73-3.54c2.64-0.56,5.3-1.12,7.94-1.73c2.65-0.6,5.3-1.24,8.02-1.95
		c1.35-0.35,2.68-0.78,4.02-1.17c1.34-0.41,2.65-0.89,3.99-1.32c1.33-0.46,2.64-0.96,3.97-1.44l3.92-1.61
		c10.38-4.48,20.41-10.56,29.13-18.79c8.7-8.17,15.96-18.79,19.94-30.99C708.07,459.07,709.41,445.76,706.83,433.42z"/>
	<path class="st1" d="M588.76,652.29c-5.4,1.33-11,0.48-15.77-2.4c-3.43-2.07-6.11-5.03-7.85-8.53c-0.1-0.22-0.22-0.42-0.34-0.62
		c-2.61,1.7-5.29,3.28-8.06,4.72c0.16,0.39,0.35,0.8,0.59,1.21c2.52,4.58,6.21,8.45,10.81,11.23c4.78,2.89,10.13,4.37,15.57,4.37
		c2.42,0,4.87-0.29,7.28-0.89c2.51-0.62,4.05-3.16,3.43-5.67C593.81,653.2,591.27,651.67,588.76,652.29z"/>
	<path class="st1" d="M696.23,545.82c-5.98-8.8-15.03-14.75-25.48-16.75c-10.45-2-21.06,0.19-29.86,6.17
		c-12.25,8.32-19.33,20.04-21.02,34.82c-1.5,13.13,1.36,28.81,8.48,46.74c3.31-0.73,6.64-1.02,9.95-0.89
		c-14.55-34.83-11.89-59.28,7.96-72.76c6.69-4.54,14.75-6.2,22.69-4.69c7.94,1.52,14.82,6.04,19.36,12.73
		c3.49,5.14,4.77,11.33,3.6,17.43s-4.64,11.38-9.78,14.87c-3.9,2.65-8.6,3.62-13.23,2.73c-4.63-0.89-8.64-3.52-11.29-7.42
		c-4.08-6-2.51-14.21,3.5-18.29c4.37-2.97,10.33-1.83,13.3,2.54c1.49,2.19,4.46,2.75,6.65,1.27c2.19-1.48,2.75-4.46,1.27-6.65
		c-2.87-4.23-7.22-7.09-12.24-8.05c-5.02-0.96-10.12,0.09-14.35,2.96c-10.37,7.04-13.08,21.21-6.04,31.58
		c4.08,6.02,10.26,10.08,17.41,11.45c7.14,1.37,14.39-0.13,20.4-4.21C702.49,581.25,706.4,560.79,696.23,545.82z"/>
</g>
<g id="Pfade">
</g>
</svg>
