<?xml version="1.0" encoding="utf-8"?>
<!-- Generator: Adobe Illustrator 25.0.1, SVG Export Plug-In . SVG Version: 6.00 Build 0)  -->
<svg version="1.1" xmlns="http://www.w3.org/2000/svg" xmlns:xlink="http://www.w3.org/1999/xlink" x="0px" y="0px"
	 viewBox="0 0 805.19 803.05" style="enable-background:new 0 0 805.19 803.05;" xml:space="preserve">
<style type="text/css">
	.st0{fill:#F9F8B0;}
	.st1{fill:#FFD200;}
</style>
<g id="Layout">
	<circle class="st0" cx="401.53" cy="401.53" r="330.09"/>
	<g>
		<path class="st1" d="M480.08,633.32c-18.81,0-35.95-12.79-40.64-31.85c-0.86-3.48,1.27-7,4.75-7.86c3.49-0.85,7,1.27,7.86,4.75
			c3.81,15.46,19.49,24.93,34.94,21.13c15.46-3.81,24.94-19.48,21.13-34.94c-0.86-3.48,1.27-7,4.75-7.86c3.48-0.86,7,1.27,7.86,4.75
			c5.52,22.41-8.22,45.13-30.62,50.65C486.74,632.92,483.38,633.32,480.08,633.32z"/>
		<path class="st1" d="M445.01,586.04c-1.37,0-2.76-0.07-4.14-0.2c-11.13-1.09-21.16-6.44-28.26-15.08
			c-14.65-17.83-12.07-44.26,5.75-58.91c2.77-2.28,6.86-1.88,9.14,0.89c2.28,2.77,1.88,6.86-0.89,9.14
			c-12.3,10.11-14.08,28.34-3.97,40.64c4.9,5.96,11.82,9.65,19.5,10.4c7.69,0.74,15.18-1.54,21.14-6.43
			c2.77-2.28,6.86-1.88,9.14,0.89c2.28,2.77,1.88,6.86-0.89,9.14C463.96,582.73,454.67,586.04,445.01,586.04z"/>
		<path class="st1" d="M502.09,568c-7.54,0-14.96-2.05-21.58-6.05c-9.57-5.79-16.31-14.95-18.98-25.8c-0.86-3.48,1.27-7,4.75-7.86
			c3.48-0.86,7,1.27,7.86,4.75c1.84,7.49,6.49,13.81,13.1,17.8c6.6,3.99,14.36,5.17,21.84,3.33c7.49-1.85,13.81-6.5,17.8-13.1
			c1.85-3.07,5.85-4.05,8.91-2.2c3.07,1.86,4.05,5.85,2.2,8.91c-5.78,9.57-14.95,16.31-25.8,18.98
			C508.84,567.59,505.45,568,502.09,568z"/>
		<path class="st1" d="M469.48,522.6c-6.43,0-12.81-1.5-18.72-4.46c-20.63-10.35-29-35.55-18.65-56.18c1.61-3.2,5.51-4.5,8.71-2.89
			c3.21,1.61,4.5,5.51,2.89,8.71c-7.14,14.23-1.37,31.62,12.87,38.75c6.89,3.46,14.72,4.02,22.04,1.59
			c7.32-2.43,13.25-7.57,16.71-14.46c1.61-3.2,5.51-4.5,8.71-2.89c3.21,1.61,4.5,5.51,2.89,8.71c-5.01,9.99-13.61,17.44-24.23,20.96
			C478.37,521.89,473.91,522.6,469.48,522.6z"/>
		<path class="st1" d="M599.02,464.51c-2.03,0-4.02-0.94-5.29-2.72c-2.08-2.92-1.41-6.97,1.51-9.05
			c6.28-4.48,10.43-11.14,11.7-18.74c1.27-7.61-0.5-15.25-4.98-21.53c-4.48-6.28-11.14-10.43-18.74-11.7
			c-7.6-1.27-15.25,0.5-21.53,4.98c-2.92,2.08-6.97,1.41-9.05-1.51c-2.08-2.92-1.41-6.97,1.51-9.05c9.1-6.5,20.18-9.06,31.21-7.22
			c11.03,1.84,20.68,7.86,27.17,16.96c6.5,9.1,9.06,20.18,7.22,31.21c-1.84,11.03-7.86,20.68-16.96,27.17
			C601.64,464.12,600.32,464.51,599.02,464.51z"/>
		<path class="st1" d="M572.28,545.69c-0.5,0-1-0.01-1.5-0.03c-23.06-0.82-41.16-20.25-40.34-43.31c0.13-3.58,3.17-6.42,6.72-6.26
			c3.58,0.13,6.38,3.13,6.26,6.72c-0.27,7.71,2.47,15.06,7.73,20.7c5.26,5.64,12.4,8.9,20.1,9.18c0.35,0.01,0.69,0.02,1.04,0.02
			c15.45,0,28.29-12.28,28.84-27.85c0.56-15.91-11.92-29.31-27.83-29.88c-3.58-0.13-6.38-3.13-6.26-6.72
			c0.13-3.58,3.13-6.37,6.72-6.26c23.06,0.82,41.16,20.25,40.35,43.31C613.29,527.88,594.68,545.69,572.28,545.69z"/>
		<path class="st1" d="M517.2,485.17c-7.54,0-14.96-2.05-21.58-6.05c-9.57-5.79-16.31-14.95-18.98-25.8
			c-2.67-10.85-0.96-22.1,4.82-31.67c5.78-9.57,14.95-16.31,25.8-18.98c10.86-2.68,22.1-0.97,31.67,4.82
			c9.57,5.78,16.31,14.95,18.98,25.8c5.52,22.41-8.22,45.13-30.63,50.65C523.94,484.76,520.56,485.17,517.2,485.17z M517.32,414.41
			c-2.32,0-4.65,0.28-6.96,0.85c-7.49,1.84-13.81,6.49-17.8,13.1c-3.99,6.6-5.17,14.36-3.33,21.84c1.84,7.49,6.49,13.81,13.1,17.8
			c6.6,3.99,14.36,5.17,21.84,3.33c15.46-3.81,24.94-19.48,21.13-34.94c-1.84-7.49-6.49-13.81-13.1-17.8
			C527.65,415.83,522.53,414.41,517.32,414.41z"/>
		<path class="st1" d="M484.63,402.06c-3.03-12.3-11.25-21.97-21.75-27.3c-1.05,1.97-2.15,3.92-3.3,5.84
			c-1.09,1.82-2.22,3.6-3.39,5.36c7.63,3.57,13.67,10.4,15.84,19.2c0.86,3.48,4.37,5.6,7.86,4.75
			C483.36,409.06,485.49,405.54,484.63,402.06z"/>
		<path class="st1" d="M194.59,371.07c-0.69,0-1.39-0.11-2.08-0.33c-11.82-3.82-23.2-9.11-33.84-15.74
			c-3.13-1.95-4.12-6.04-2.23-9.21c1.62-2.72,3.38-5.42,5.21-8.03c5.91-8.43,12.81-16.11,20.5-22.85c2.81-2.46,7.08-2.18,9.55,0.63
			c2.46,2.81,2.18,7.08-0.63,9.55c-6.88,6.02-13.05,12.9-18.34,20.44c-0.34,0.48-0.67,0.97-1.01,1.46
			c7.97,4.44,16.34,8.09,24.96,10.87c3.55,1.15,5.51,4.96,4.36,8.52C200.1,369.25,197.45,371.07,194.59,371.07z"/>
		<path class="st1" d="M217.26,317.47c-1.04,0-2.09-0.24-3.08-0.75c-4.9-2.51-9.71-5.38-14.28-8.52c-2.64-1.81-5.22-3.73-7.69-5.71
			c-2.88-2.31-3.37-6.49-1.12-9.41c9.1-11.79,19.8-22.14,31.78-30.75c3.03-2.18,7.26-1.49,9.44,1.55c2.18,3.03,1.49,7.26-1.55,9.44
			c-9.08,6.53-17.36,14.15-24.66,22.72c0.48,0.34,0.97,0.68,1.45,1.02c4.09,2.81,8.39,5.38,12.78,7.63c3.33,1.7,4.64,5.78,2.94,9.1
			C222.09,316.13,219.72,317.47,217.26,317.47z"/>
		<path class="st1" d="M250.41,403.98c-0.51,0-1.03-0.06-1.55-0.18c-13.24-3.1-26.08-7.99-38.14-14.54
			c-3.24-1.76-4.48-5.79-2.78-9.06c1.47-2.82,3.05-5.62,4.72-8.33c3.58-5.8,7.64-11.36,12.07-16.5c2.44-2.83,6.71-3.15,9.54-0.71
			c2.83,2.44,3.15,6.71,0.71,9.54c-3.96,4.6-7.6,9.57-10.8,14.76c-0.31,0.5-0.62,1.01-0.92,1.52c9.2,4.43,18.82,7.83,28.68,10.14
			c3.64,0.85,5.9,4.49,5.05,8.13C256.26,401.87,253.48,403.98,250.41,403.98z"/>
		<path class="st1" d="M293.78,290.54c-0.75,0-1.52-0.13-2.27-0.39c-20.62-7.33-39.14-19.88-53.56-36.3
			c-2.11-2.4-4.14-4.9-6.05-7.42c-2.22-2.94-1.68-7.12,1.22-9.4c19.76-15.51,43.14-25.96,67.62-30.25c3.67-0.65,7.18,1.82,7.83,5.5
			c0.64,3.68-1.82,7.18-5.5,7.83c-20.07,3.51-39.34,11.58-56.12,23.47c0.38,0.45,0.77,0.9,1.16,1.34
			c12.9,14.69,29.47,25.92,47.92,32.48c3.52,1.25,5.36,5.12,4.11,8.64C299.17,288.82,296.57,290.54,293.78,290.54z"/>
		<path class="st1" d="M310.99,428.38c-13.46,0-26.96-1.79-40.15-5.38c-3.56-0.97-5.69-4.6-4.79-8.18c0.77-3.06,1.67-6.15,2.68-9.19
			c7.44-22.41,20.93-42.35,39.01-57.66c2.85-2.42,7.12-2.06,9.53,0.79c2.42,2.85,2.06,7.12-0.79,9.53
			c-16.18,13.7-28.26,31.55-34.91,51.6c-0.19,0.56-0.37,1.12-0.55,1.68c22.67,5,46.12,4.27,68.24-2.17
			c3.58-1.05,7.34,1.02,8.38,4.61c1.04,3.59-1.02,7.34-4.61,8.38C339.35,426.38,325.19,428.38,310.99,428.38z"/>
		<path class="st1" d="M378.17,429.07c-2.85,0-5.5-1.82-6.43-4.67c-1.34-4.12-2.46-8.37-3.33-12.64
			c-4.4-21.71-2.23-44.27,6.07-64.64c-27.59-0.02-54.54-7.61-78.55-22.21c-3.15-1.91-4.19-6-2.33-9.18c1.6-2.74,3.32-5.46,5.12-8.09
			c13.67-19.92,32.33-35.31,54.4-44.98c-15.5-15.51-26.23-35.39-30.62-57.02c-0.54-2.66-0.99-5.35-1.33-8.01
			c-0.47-3.67,2.09-7.03,5.75-7.56c30.48-4.39,61.29,2.82,86.75,20.3c25.51,17.51,43.33,43.77,50.18,73.93v0l0.28,1.2
			c0.13,0.54,0.25,1.07,0.36,1.62c6.1,30.08,0.77,61.14-15.01,87.44c-15.68,26.13-40.3,45.39-69.33,54.23
			C379.49,428.97,378.82,429.07,378.17,429.07z M385.3,333.2c2.27,0,4.41,1.15,5.67,3.07c1.34,2.06,1.46,4.7,0.3,6.87
			c-10.73,20.12-14.13,43.54-9.59,65.93c0.31,1.52,0.65,3.04,1.03,4.55c22.99-8.62,42.41-24.77,55.17-46.04
			c14.04-23.4,18.78-51.03,13.36-77.79c-0.08-0.4-0.17-0.79-0.27-1.19l-0.31-1.32c0,0,0,0,0,0c-6.09-26.83-21.94-50.19-44.64-65.77
			c-20.74-14.24-45.47-20.82-70.3-18.83c0.02,0.09,0.04,0.17,0.05,0.26c4.52,22.28,16.69,42.45,34.29,56.8
			c1.91,1.55,2.82,4.02,2.38,6.44c-0.44,2.42-2.15,4.41-4.47,5.21c-23.87,8.14-43.96,23.32-58.08,43.9
			c-0.33,0.49-0.66,0.98-0.99,1.47c23.38,12.73,49.48,18.4,75.91,16.45C384.97,333.2,385.13,333.2,385.3,333.2z"/>
		<path class="st1" d="M450.9,440.1c-7.49,1.85-15.25,0.67-21.84-3.33c-4.75-2.87-8.47-6.96-10.88-11.82
			c-0.15-0.3-0.3-0.59-0.46-0.86c-3.61,2.35-7.33,4.54-11.16,6.54c0.22,0.55,0.49,1.1,0.81,1.68c3.5,6.35,8.61,11.71,14.98,15.56
			c6.62,4,14.04,6.06,21.58,6.06c3.36,0,6.74-0.41,10.09-1.23c3.48-0.86,5.61-4.38,4.75-7.86
			C457.9,441.37,454.37,439.25,450.9,440.1z"/>
		<path class="st1" d="M599.8,292.59c-8.28-12.2-20.82-20.44-35.3-23.21c-14.48-2.77-29.17,0.27-41.37,8.55
			c-16.98,11.53-26.78,27.76-29.12,48.25c-2.08,18.2,1.88,39.92,11.75,64.76c4.58-1.01,9.21-1.42,13.78-1.23
			c-20.16-48.26-16.47-82.13,11.03-100.81c9.27-6.29,20.43-8.6,31.44-6.5c11,2.1,20.53,8.37,26.82,17.64
			c4.84,7.12,6.61,15.7,4.99,24.16c-1.62,8.46-6.43,15.77-13.55,20.61c-5.4,3.67-11.91,5.01-18.33,3.79
			c-6.42-1.23-11.97-4.88-15.64-10.28c-5.65-8.32-3.48-19.69,4.84-25.34c6.05-4.11,14.32-2.53,18.43,3.52
			c2.06,3.03,6.18,3.81,9.21,1.76c3.03-2.06,3.82-6.18,1.76-9.21c-3.98-5.86-10-9.82-16.96-11.15c-6.96-1.32-14.02,0.13-19.88,4.11
			c-14.37,9.76-18.12,29.38-8.36,43.75c5.66,8.34,14.22,13.97,24.12,15.86c9.89,1.9,19.93-0.18,28.27-5.84
			C608.47,341.68,613.89,313.34,599.8,292.59z"/>
	</g>
</g>
<g id="Pfade">
</g>
</svg>
